<?xml version="1.0" encoding="utf-8"?>
<!-- Generator: Adobe Illustrator 23.0.6, SVG Export Plug-In . SVG Version: 6.00 Build 0)  -->
<svg version="1.1" xmlns="http://www.w3.org/2000/svg" xmlns:xlink="http://www.w3.org/1999/xlink" x="0px" y="0px"
	 viewBox="0 0 949.2 575.8" style="enable-background:new 0 0 949.2 575.8;" xml:space="preserve">
<style type="text/css">
	.st0{fill:#414042;}
	.st1{fill:#00A8FF;}
	.st2{fill:#FFFFFF;}
</style>
<g id="Layer_3">
</g>
<g id="Ebene_1">
</g>
<g id="Layer_2">
	<g>
		<g>
			<path class="st0" d="M114.9,472.3h-3.7v4H109v-9.8h2.1v3.9h3.7v-3.9h2.1v9.8h-2.1V472.3z"/>
			<path class="st0" d="M118.6,472.6c0-2.4,1.3-3.8,3.4-3.8s3.4,1.5,3.4,3.8c0,2.4-1.3,3.9-3.4,3.9S118.6,474.9,118.6,472.6z
				 M123.3,473.3v-1.5c0-0.9-0.5-1.5-1.3-1.5s-1.3,0.5-1.3,1.5v1.5c0,0.9,0.5,1.5,1.3,1.5S123.3,474.3,123.3,473.3z"/>
			<path class="st0" d="M126.9,476.3v-7.4h2.1v1.6h0.1c0.2-0.8,0.7-1.6,1.9-1.6h0.4v1.9h-0.5c-1.2,0-1.8,0.3-1.8,1.1v4.3H126.9z"/>
			<path class="st0" d="M132.4,467.1v-0.3c0-0.6,0.4-1,1.2-1c0.8,0,1.2,0.4,1.2,1v0.3c0,0.6-0.4,1-1.2,1
				C132.8,468.1,132.4,467.7,132.4,467.1z M132.6,468.9h2.1v7.4h-2.1V468.9z"/>
			<path class="st0" d="M136.2,476.3v-1.6l3.7-4.1h-3.5v-1.6h5.9v1.6l-3.7,4.1h3.8v1.6H136.2z"/>
			<path class="st0" d="M143.2,472.6c0-2.4,1.3-3.8,3.4-3.8s3.4,1.5,3.4,3.8c0,2.4-1.3,3.9-3.4,3.9S143.2,474.9,143.2,472.6z
				 M147.9,473.3v-1.5c0-0.9-0.5-1.5-1.3-1.5s-1.3,0.5-1.3,1.5v1.5c0,0.9,0.5,1.5,1.3,1.5S147.9,474.3,147.9,473.3z"/>
			<path class="st0" d="M151.6,476.3v-7.4h2.1v1.2h0.1c0.3-0.8,0.9-1.4,2-1.4c1.5,0,2.3,1.1,2.3,2.9v4.6H156v-4.4
				c0-0.9-0.3-1.4-1-1.4c-0.7,0-1.3,0.3-1.3,1.1v4.8H151.6z"/>
			<path class="st0" d="M162.5,476.3c-1.4,0-2.2-0.7-2.2-2.1v-3.6h-1v-1.6h0.5c0.6,0,0.7-0.3,0.7-0.8v-1.2h1.9v2h1.5v1.6h-1.5v4.1
				h1.3v1.6H162.5z"/>
			<path class="st0" d="M170.7,476.3c-0.7,0-1.3-0.5-1.4-1.3h-0.1c-0.2,1-1,1.5-2.2,1.5c-1.5,0-2.3-0.9-2.3-2.1
				c0-1.6,1.2-2.3,3.2-2.3h1.2v-0.5c0-0.7-0.4-1.2-1.2-1.2c-0.8,0-1.3,0.4-1.6,0.9l-1.2-1.1c0.6-0.9,1.4-1.4,3-1.4
				c2.1,0,3.1,1,3.1,2.7v3.2h0.7v1.6H170.7z M169.1,474v-0.9h-1c-0.8,0-1.2,0.3-1.2,0.8v0.2c0,0.5,0.3,0.8,1,0.8
				C168.5,475,169.1,474.7,169.1,474z"/>
			<path class="st0" d="M175.3,476.3c-1.4,0-2.1-0.7-2.1-2v-8.3h2.1v8.8h0.9v1.6H175.3z"/>
			<path class="st0" d="M179.4,476.3c-1.4,0-2.1-0.7-2.1-2v-8.3h2.1v8.8h0.9v1.6H179.4z"/>
			<path class="st0" d="M186,468.9h1.9l-2.8,8.5c-0.4,1.1-1,1.7-2.3,1.7h-1.3v-1.6h1.4l0.3-0.8l-2.6-7.7h2.1l1.1,3.4l0.5,2.1h0.1
				l0.5-2.1L186,468.9z"/>
			<path class="st0" d="M108.5,491.6l1.4-1.4c0.7,0.7,1.5,1.1,2.5,1.1c1,0,1.5-0.5,1.5-1.2c0-0.5-0.2-0.9-1.1-1.1l-1-0.1
				c-2.1-0.3-3-1.3-3-2.9c0-1.8,1.4-3,3.7-3c1.5,0,2.6,0.5,3.4,1.4l-1.4,1.4c-0.5-0.5-1.1-0.9-2.1-0.9c-1,0-1.4,0.4-1.4,1
				c0,0.7,0.3,0.9,1.2,1.1l1,0.2c2,0.3,3,1.2,3,2.9c0,1.9-1.4,3.2-3.8,3.2C110.5,493.2,109.3,492.6,108.5,491.6z"/>
			<path class="st0" d="M117.2,489.4c0-2.4,1.2-3.8,3.4-3.8c1.5,0,2.5,0.7,2.9,1.9l-1.7,0.7c-0.1-0.6-0.5-1-1.3-1
				c-0.8,0-1.3,0.6-1.3,1.5v1.4c0,0.9,0.4,1.5,1.3,1.5c0.8,0,1.2-0.5,1.4-1.1l1.6,0.7c-0.5,1.4-1.5,2-3,2
				C118.4,493.2,117.2,491.7,117.2,489.4z"/>
			<path class="st0" d="M130.3,493.1c-0.7,0-1.3-0.5-1.4-1.3h-0.1c-0.2,1-1,1.5-2.2,1.5c-1.5,0-2.3-0.9-2.3-2.1
				c0-1.6,1.2-2.3,3.2-2.3h1.2v-0.5c0-0.7-0.4-1.2-1.2-1.2c-0.8,0-1.3,0.4-1.6,0.9l-1.2-1.1c0.6-0.9,1.4-1.4,3-1.4
				c2.1,0,3.1,1,3.1,2.7v3.2h0.7v1.6H130.3z M128.7,490.8V490h-1c-0.8,0-1.2,0.3-1.2,0.8v0.2c0,0.5,0.3,0.8,1,0.8
				C128.1,491.8,128.7,491.5,128.7,490.8z"/>
			<path class="st0" d="M134.9,493.1c-1.4,0-2.1-0.7-2.1-2v-8.3h2.1v8.8h0.9v1.6H134.9z"/>
			<path class="st0" d="M142.5,493.1c-0.7,0-1.3-0.5-1.4-1.3H141c-0.2,1-1,1.5-2.2,1.5c-1.5,0-2.3-0.9-2.3-2.1
				c0-1.6,1.2-2.3,3.2-2.3h1.2v-0.5c0-0.7-0.4-1.2-1.2-1.2c-0.8,0-1.3,0.4-1.6,0.9l-1.2-1.1c0.6-0.9,1.4-1.4,3-1.4
				c2.1,0,3.1,1,3.1,2.7v3.2h0.7v1.6H142.5z M140.9,490.8V490h-1c-0.8,0-1.2,0.3-1.2,0.8v0.2c0,0.5,0.4,0.8,1,0.8
				C140.3,491.8,140.9,491.5,140.9,490.8z"/>
			<path class="st0" d="M145,482.7h2.1v4.2h0.1c0.2-0.8,1-1.4,2-1.4c1.9,0,2.8,1.3,2.8,3.8s-1,3.9-2.8,3.9c-1,0-1.8-0.6-2-1.4h-0.1
				v1.2H145V482.7z M149.8,490v-1.3c0-0.9-0.6-1.5-1.4-1.5s-1.4,0.4-1.4,1.1v2.2c0,0.7,0.6,1.1,1.4,1.1S149.8,490.9,149.8,490z"/>
			<path class="st0" d="M155.6,493.1c-1.4,0-2.1-0.7-2.1-2v-8.3h2.1v8.8h0.9v1.6H155.6z"/>
			<path class="st0" d="M157.3,489.4c0-2.3,1.2-3.8,3.4-3.8c2.4,0,3.4,1.8,3.4,3.8v0.6h-4.7v0.1c0,1,0.5,1.6,1.6,1.6
				c0.9,0,1.3-0.4,1.8-0.9l1,1.3c-0.7,0.8-1.7,1.2-3.1,1.2C158.6,493.2,157.3,491.7,157.3,489.4z M159.5,488.6v0.1h2.6v-0.1
				c0-0.9-0.4-1.5-1.2-1.5S159.5,487.7,159.5,488.6z"/>
		</g>
		<g>
			<polygon class="st0" points="66.6,474.1 63.4,477.4 73.8,487.7 91.3,470.2 88,467 73.8,481.2 			"/>
		</g>
		<g>
			<path class="st0" d="M91.3,470.2l-17.5,17.5l-10.4-10.4l3.3-3.3l7.1,7.1L88,467L91.3,470.2z"/>
		</g>
	</g>
	<g>
		<g>
			<path class="st0" d="M331.9,469.8L331.9,469.8l-0.8,1.4l-1.9,3.5l-1.9-3.4l-0.7-1.5h0v6.5h-2v-9.8h2.3l2.4,4.6h0l2.4-4.6h2.3v9.8
				h-2V469.8z"/>
			<path class="st0" d="M340.3,475L340.3,475c-0.3,0.7-0.9,1.4-2.1,1.4c-1.5,0-2.3-1.1-2.3-2.9v-4.6h2.1v4.4c0,0.9,0.3,1.4,1,1.4
				c0.6,0,1.3-0.4,1.3-1.1v-4.8h2.1v7.4h-2.1V475z"/>
			<path class="st0" d="M346.4,476.3c-1.4,0-2.1-0.7-2.1-2v-8.3h2.1v8.8h0.9v1.6H346.4z"/>
			<path class="st0" d="M351.1,476.3c-1.4,0-2.2-0.7-2.2-2.1v-3.6h-1v-1.6h0.5c0.6,0,0.7-0.3,0.7-0.8v-1.2h1.9v2h1.5v1.6H351v4.1
				h1.3v1.6H351.1z"/>
			<path class="st0" d="M353.7,467.1v-0.3c0-0.6,0.4-1,1.2-1c0.8,0,1.2,0.4,1.2,1v0.3c0,0.6-0.4,1-1.2,1
				C354.1,468.1,353.7,467.7,353.7,467.1z M353.9,468.9h2.1v7.4h-2.1V468.9z"/>
			<path class="st0" d="M360.9,473v-2h4.2v2H360.9z"/>
			<path class="st0" d="M369.6,472.6c0-2.4,1.2-3.8,3.4-3.8c1.5,0,2.5,0.7,2.9,1.9l-1.7,0.7c-0.1-0.6-0.5-1-1.3-1
				c-0.8,0-1.3,0.6-1.3,1.5v1.4c0,0.9,0.4,1.5,1.3,1.5c0.8,0,1.2-0.5,1.4-1.1l1.6,0.7c-0.5,1.4-1.5,2-3,2
				C370.9,476.4,369.6,474.9,369.6,472.6z"/>
			<path class="st0" d="M379.4,476.3c-1.4,0-2.1-0.7-2.1-2v-8.3h2.1v8.8h0.9v1.6H379.4z"/>
			<path class="st0" d="M381.1,472.6c0-2.4,1.3-3.8,3.4-3.8s3.4,1.5,3.4,3.8s-1.3,3.9-3.4,3.9S381.1,474.9,381.1,472.6z
				 M385.9,473.3v-1.5c0-0.9-0.5-1.5-1.3-1.5s-1.3,0.5-1.3,1.5v1.5c0,0.9,0.5,1.5,1.3,1.5S385.9,474.3,385.9,473.3z"/>
			<path class="st0" d="M393.8,475L393.8,475c-0.3,0.7-0.9,1.4-2.1,1.4c-1.5,0-2.3-1.1-2.3-2.9v-4.6h2.1v4.4c0,0.9,0.3,1.4,1,1.4
				c0.6,0,1.3-0.4,1.3-1.1v-4.8h2.1v7.4h-2.1V475z"/>
			<path class="st0" d="M402.3,475L402.3,475c-0.3,0.8-1.1,1.4-2,1.4c-1.9,0-2.8-1.4-2.8-3.9s1-3.8,2.8-3.8c1,0,1.8,0.6,2,1.4h0.1
				v-4.2h2.1v10.4h-2.1V475z M402.3,473.7v-2.2c0-0.7-0.6-1.1-1.4-1.1s-1.4,0.6-1.4,1.5v1.3c0,0.9,0.6,1.5,1.4,1.5
				S402.3,474.3,402.3,473.7z"/>
			<path class="st0" d="M405.4,478.4l4.2-12.5h1.7l-4.2,12.5H405.4z"/>
			<path class="st0" d="M331.9,486.6L331.9,486.6l-0.8,1.4l-1.9,3.5l-1.9-3.4l-0.7-1.5h0v6.5h-2v-9.8h2.3l2.4,4.6h0l2.4-4.6h2.3v9.8
				h-2V486.6z"/>
			<path class="st0" d="M340.3,491.8L340.3,491.8c-0.3,0.7-0.9,1.4-2.1,1.4c-1.5,0-2.3-1.1-2.3-2.9v-4.6h2.1v4.4
				c0,0.9,0.3,1.4,1,1.4c0.6,0,1.3-0.4,1.3-1.1v-4.8h2.1v7.4h-2.1V491.8z"/>
			<path class="st0" d="M346.4,493.1c-1.4,0-2.1-0.7-2.1-2v-8.3h2.1v8.8h0.9v1.6H346.4z"/>
			<path class="st0" d="M351.1,493.1c-1.4,0-2.2-0.7-2.2-2.1v-3.6h-1v-1.6h0.5c0.6,0,0.7-0.3,0.7-0.8v-1.2h1.9v2h1.5v1.6H351v4.1
				h1.3v1.6H351.1z"/>
			<path class="st0" d="M353.7,483.9v-0.3c0-0.6,0.4-1,1.2-1c0.8,0,1.2,0.4,1.2,1v0.3c0,0.6-0.4,1-1.2,1
				C354.1,484.9,353.7,484.5,353.7,483.9z M353.9,485.7h2.1v7.4h-2.1V485.7z"/>
			<path class="st0" d="M360.9,489.8v-2h4.2v2H360.9z"/>
			<path class="st0" d="M372.2,493.1c-1.4,0-2.1-0.7-2.1-2v-8.3h2.1v8.8h0.9v1.6H372.2z"/>
			<path class="st0" d="M373.9,489.4c0-2.4,1.3-3.8,3.4-3.8s3.4,1.5,3.4,3.8s-1.3,3.9-3.4,3.9S373.9,491.7,373.9,489.4z
				 M378.6,490.1v-1.5c0-0.9-0.5-1.5-1.3-1.5s-1.3,0.5-1.3,1.5v1.5c0,0.9,0.5,1.5,1.3,1.5S378.6,491.1,378.6,490.1z"/>
			<path class="st0" d="M381.8,489.4c0-2.4,1.2-3.8,3.4-3.8c1.5,0,2.5,0.7,2.9,1.9l-1.7,0.7c-0.1-0.6-0.5-1-1.3-1
				c-0.8,0-1.3,0.6-1.3,1.5v1.4c0,0.9,0.4,1.5,1.3,1.5c0.8,0,1.2-0.5,1.4-1.1l1.6,0.7c-0.5,1.4-1.5,2-3,2
				C383,493.2,381.8,491.7,381.8,489.4z"/>
			<path class="st0" d="M394.9,493.1c-0.7,0-1.3-0.5-1.4-1.3h-0.1c-0.2,1-1,1.5-2.2,1.5c-1.5,0-2.3-0.9-2.3-2.1
				c0-1.6,1.2-2.3,3.2-2.3h1.2v-0.5c0-0.7-0.4-1.2-1.2-1.2c-0.8,0-1.3,0.4-1.6,0.9l-1.2-1.1c0.6-0.9,1.4-1.4,3-1.4
				c2.1,0,3.1,1,3.1,2.7v3.2h0.7v1.6H394.9z M393.3,490.8V490h-1c-0.8,0-1.2,0.3-1.2,0.8v0.2c0,0.5,0.3,0.8,1,0.8
				C392.7,491.8,393.3,491.5,393.3,490.8z"/>
			<path class="st0" d="M399.9,493.1c-1.4,0-2.2-0.7-2.2-2.1v-3.6h-1v-1.6h0.5c0.6,0,0.7-0.3,0.7-0.8v-1.2h1.9v2h1.5v1.6h-1.5v4.1
				h1.3v1.6H399.9z"/>
			<path class="st0" d="M402.6,483.9v-0.3c0-0.6,0.4-1,1.2-1c0.8,0,1.2,0.4,1.2,1v0.3c0,0.6-0.4,1-1.2,1
				C402.9,484.9,402.6,484.5,402.6,483.9z M402.7,485.7h2.1v7.4h-2.1V485.7z"/>
			<path class="st0" d="M406.3,489.4c0-2.4,1.3-3.8,3.4-3.8s3.4,1.5,3.4,3.8s-1.3,3.9-3.4,3.9S406.3,491.7,406.3,489.4z M411,490.1
				v-1.5c0-0.9-0.5-1.5-1.3-1.5s-1.3,0.5-1.3,1.5v1.5c0,0.9,0.5,1.5,1.3,1.5S411,491.1,411,490.1z"/>
			<path class="st0" d="M414.6,493.1v-7.4h2.1v1.2h0.1c0.3-0.8,0.9-1.4,2-1.4c1.5,0,2.3,1.1,2.3,2.9v4.6h-2.1v-4.4
				c0-0.9-0.3-1.4-1-1.4c-0.7,0-1.3,0.3-1.3,1.1v4.8H414.6z"/>
			<path class="st0" d="M424,487.6l-0.8-0.6l1.3-1.6l-2-0.5l0.3-0.9l1.9,0.7l-0.1-2.1h1l-0.1,2.1l1.9-0.7l0.3,0.9l-2,0.5l1.3,1.6
				l-0.8,0.6l-1.1-1.7L424,487.6z"/>
		</g>
		<g>
			<polygon class="st0" points="283.4,474.1 280.1,477.4 290.5,487.7 308,470.2 304.8,467 290.5,481.2 			"/>
		</g>
		<g>
			<path class="st0" d="M308,470.2l-17.5,17.5l-10.4-10.4l3.3-3.3l7.1,7.1l14.3-14.3L308,470.2z"/>
		</g>
	</g>
	<g>
		<g>
			<path class="st0" d="M563.2,474.8l1.4-1.4c0.7,0.7,1.5,1.1,2.5,1.1c1,0,1.5-0.5,1.5-1.2c0-0.5-0.2-0.9-1.1-1.1l-1-0.1
				c-2.1-0.3-3-1.3-3-2.9c0-1.8,1.4-3,3.7-3c1.5,0,2.6,0.5,3.4,1.4l-1.4,1.4c-0.5-0.5-1.1-0.9-2.1-0.9c-1,0-1.4,0.4-1.4,1
				c0,0.7,0.3,0.9,1.2,1.1l1,0.2c2,0.3,3,1.2,3,2.9c0,1.9-1.4,3.2-3.8,3.2C565.2,476.4,564,475.8,563.2,474.8z"/>
			<path class="st0" d="M571.9,472.6c0-2.3,1.2-3.8,3.4-3.8c2.4,0,3.4,1.8,3.4,3.8v0.6h-4.7v0.1c0,1,0.5,1.6,1.6,1.6
				c0.9,0,1.3-0.4,1.8-0.9l1,1.3c-0.7,0.8-1.7,1.2-3.1,1.2C573.2,476.4,571.9,474.9,571.9,472.6z M574.1,471.8v0.1h2.6v-0.1
				c0-0.9-0.4-1.5-1.2-1.5S574.1,470.9,574.1,471.8z"/>
			<path class="st0" d="M579.8,472.6c0-2.4,1.2-3.8,3.4-3.8c1.5,0,2.5,0.7,2.9,1.9l-1.7,0.7c-0.1-0.6-0.5-1-1.3-1
				c-0.8,0-1.3,0.6-1.3,1.5v1.4c0,0.9,0.4,1.5,1.3,1.5c0.8,0,1.2-0.5,1.4-1.1l1.6,0.7c-0.5,1.4-1.5,2-3,2
				C581,476.4,579.8,474.9,579.8,472.6z"/>
			<path class="st0" d="M591.8,475L591.8,475c-0.3,0.7-0.9,1.4-2.1,1.4c-1.5,0-2.3-1.1-2.3-2.9v-4.6h2.1v4.4c0,0.9,0.3,1.4,1,1.4
				c0.6,0,1.3-0.4,1.3-1.1v-4.8h2.1v7.4h-2.1V475z"/>
			<path class="st0" d="M595.8,476.3v-7.4h2.1v1.6h0.1c0.2-0.8,0.7-1.6,1.9-1.6h0.4v1.9h-0.5c-1.2,0-1.8,0.3-1.8,1.1v4.3H595.8z"/>
			<path class="st0" d="M601.3,467.1v-0.3c0-0.6,0.4-1,1.2-1c0.8,0,1.2,0.4,1.2,1v0.3c0,0.6-0.4,1-1.2,1
				C601.7,468.1,601.3,467.7,601.3,467.1z M601.5,468.9h2.1v7.4h-2.1V468.9z"/>
			<path class="st0" d="M608.1,476.3c-1.4,0-2.2-0.7-2.2-2.1v-3.6h-1v-1.6h0.5c0.6,0,0.7-0.3,0.7-0.8v-1.2h1.9v2h1.5v1.6H608v4.1
				h1.3v1.6H608.1z"/>
			<path class="st0" d="M615.3,468.9h1.9l-2.8,8.5c-0.4,1.1-1,1.7-2.3,1.7h-1.3v-1.6h1.4l0.3-0.8l-2.6-7.7h2.1l1.1,3.4l0.5,2.1h0.1
				l0.5-2.1L615.3,468.9z"/>
			<path class="st0" d="M627.5,475.5c-0.6,0.5-1.4,1-2.8,1c-2.2,0-3.3-1.2-3.3-2.7c0-1.3,0.8-2.1,2-2.7c-0.5-0.6-1.1-1.4-1.1-2.3
				c0-1.3,1.1-2.3,2.9-2.3c1.6,0,2.8,0.8,2.8,2.2c0,1.2-0.9,2-1.9,2.6l1.5,1.6c0.2-0.6,0.4-1.3,0.4-1.9h2.3v1.7h-0.9
				c-0.2,0.6-0.4,1.1-0.6,1.6l1.9,2.1h-2.5L627.5,475.5z M626.4,474.3l-2.1-2.2c-0.6,0.4-0.9,0.7-0.9,1.2v0.1c0,0.7,0.5,1.2,1.5,1.2
				C625.6,474.7,626,474.6,626.4,474.3z M624.2,468.7L624.2,468.7c0,0.4,0.2,0.7,0.8,1.4c0.7-0.4,1-0.8,1-1.3v-0.1
				c0-0.5-0.4-0.8-0.9-0.8S624.2,468.2,624.2,468.7z"/>
			<path class="st0" d="M563.4,488.2c0-3.3,1.7-5.1,4.3-5.1c1.8,0,2.9,0.7,3.7,2.3l-1.8,1c-0.3-0.8-0.8-1.4-1.8-1.4
				c-1.2,0-2.1,0.8-2.1,2.4v1.6c0,1.5,0.8,2.4,2.1,2.4c1.1,0,1.7-0.7,1.9-1.5l1.7,1c-0.7,1.5-1.9,2.3-3.7,2.3
				C565.1,493.2,563.4,491.5,563.4,488.2z"/>
			<path class="st0" d="M572.3,489.4c0-2.4,1.3-3.8,3.4-3.8s3.4,1.5,3.4,3.8s-1.3,3.9-3.4,3.9S572.3,491.7,572.3,489.4z M577,490.1
				v-1.5c0-0.9-0.5-1.5-1.3-1.5s-1.3,0.5-1.3,1.5v1.5c0,0.9,0.5,1.5,1.3,1.5S577,491.1,577,490.1z"/>
			<path class="st0" d="M580.7,493.1v-7.4h2.1v1.2h0.1c0.3-0.8,0.9-1.4,2-1.4c1,0,1.7,0.5,2.1,1.5h0c0.3-0.8,1.1-1.5,2.2-1.5
				c1.4,0,2.2,1.1,2.2,2.9v4.6h-2.1v-4.4c0-1-0.3-1.4-1-1.4c-0.6,0-1.2,0.3-1.2,1.1v4.8H585v-4.4c0-1-0.3-1.4-1-1.4
				c-0.6,0-1.2,0.3-1.2,1.1v4.8H580.7z"/>
			<path class="st0" d="M593.2,485.7h2.1v1.2h0.1c0.2-0.8,1-1.4,2-1.4c1.9,0,2.8,1.3,2.8,3.8c0,2.5-1,3.9-2.8,3.9
				c-1,0-1.8-0.6-2-1.4h-0.1v4h-2.1V485.7z M598,490v-1.3c0-0.9-0.6-1.5-1.4-1.5s-1.4,0.4-1.4,1.1v2.2c0,0.7,0.6,1.1,1.4,1.1
				S598,490.9,598,490z"/>
			<path class="st0" d="M603.7,493.1c-1.4,0-2.1-0.7-2.1-2v-8.3h2.1v8.8h0.9v1.6H603.7z"/>
			<path class="st0" d="M605.8,483.9v-0.3c0-0.6,0.4-1,1.2-1c0.8,0,1.2,0.4,1.2,1v0.3c0,0.6-0.4,1-1.2,1
				C606.1,484.9,605.8,484.5,605.8,483.9z M605.9,485.7h2.1v7.4h-2.1V485.7z"/>
			<path class="st0" d="M615.4,493.1c-0.7,0-1.3-0.5-1.4-1.3h-0.1c-0.2,1-1,1.5-2.2,1.5c-1.5,0-2.3-0.9-2.3-2.1
				c0-1.6,1.2-2.3,3.2-2.3h1.2v-0.5c0-0.7-0.4-1.2-1.2-1.2c-0.8,0-1.3,0.4-1.6,0.9l-1.2-1.1c0.6-0.9,1.4-1.4,3-1.4
				c2.1,0,3.1,1,3.1,2.7v3.2h0.7v1.6H615.4z M613.8,490.8V490h-1c-0.8,0-1.2,0.3-1.2,0.8v0.2c0,0.5,0.4,0.8,1,0.8
				C613.2,491.8,613.8,491.5,613.8,490.8z"/>
			<path class="st0" d="M617.9,493.1v-7.4h2.1v1.2h0.1c0.3-0.8,0.9-1.4,2-1.4c1.5,0,2.3,1.1,2.3,2.9v4.6h-2.1v-4.4
				c0-0.9-0.3-1.4-1-1.4c-0.7,0-1.3,0.3-1.3,1.1v4.8H617.9z"/>
			<path class="st0" d="M625.8,489.4c0-2.4,1.2-3.8,3.4-3.8c1.5,0,2.5,0.7,2.9,1.9l-1.7,0.7c-0.1-0.6-0.5-1-1.3-1
				c-0.8,0-1.3,0.6-1.3,1.5v1.4c0,0.9,0.4,1.5,1.3,1.5c0.8,0,1.2-0.5,1.4-1.1l1.6,0.7c-0.5,1.4-1.5,2-3,2
				C627,493.2,625.8,491.7,625.8,489.4z"/>
			<path class="st0" d="M632.9,489.4c0-2.3,1.2-3.8,3.4-3.8c2.4,0,3.4,1.8,3.4,3.8v0.6h-4.7v0.1c0,1,0.5,1.6,1.6,1.6
				c0.9,0,1.3-0.4,1.8-0.9l1,1.3c-0.7,0.8-1.7,1.2-3.1,1.2C634.2,493.2,632.9,491.7,632.9,489.4z M635.1,488.6v0.1h2.6v-0.1
				c0-0.9-0.4-1.5-1.2-1.5S635.1,487.7,635.1,488.6z"/>
		</g>
		<g>
			<polygon class="st0" points="521.4,474.1 518.2,477.4 528.6,487.7 546.1,470.2 542.8,467 528.6,481.2 			"/>
		</g>
	</g>
	<g>
		<g>
			<path class="st0" d="M803.6,468.4v7.9h-2.1v-7.9h-2.6v-1.9h7.4v1.9H803.6z"/>
			<path class="st0" d="M806.2,472.6c0-2.3,1.2-3.8,3.4-3.8c2.4,0,3.4,1.8,3.4,3.8v0.6h-4.7v0.1c0,1,0.5,1.6,1.6,1.6
				c0.9,0,1.3-0.4,1.8-0.9l1,1.3c-0.7,0.8-1.7,1.2-3.1,1.2C807.5,476.4,806.2,474.9,806.2,472.6z M808.3,471.8v0.1h2.6v-0.1
				c0-0.9-0.4-1.5-1.2-1.5S808.3,470.9,808.3,471.8z"/>
			<path class="st0" d="M814.1,472.6c0-2.4,1.2-3.8,3.4-3.8c1.5,0,2.5,0.7,2.9,1.9l-1.7,0.7c-0.1-0.6-0.5-1-1.3-1
				c-0.8,0-1.3,0.6-1.3,1.5v1.4c0,0.9,0.4,1.5,1.3,1.5c0.8,0,1.2-0.5,1.4-1.1l1.6,0.7c-0.5,1.4-1.5,2-3,2
				C815.3,476.4,814.1,474.9,814.1,472.6z"/>
			<path class="st0" d="M821.8,465.9h2.1v4.3h0.1c0.3-0.8,0.9-1.4,2-1.4c1.5,0,2.3,1.1,2.3,2.9v4.6h-2.1v-4.4c0-0.9-0.3-1.4-1-1.4
				c-0.7,0-1.3,0.3-1.3,1.1v4.8h-2.1V465.9z"/>
			<path class="st0" d="M830.1,476.3v-7.4h2.1v1.2h0.1c0.3-0.8,0.9-1.4,2-1.4c1.5,0,2.3,1.1,2.3,2.9v4.6h-2.1v-4.4
				c0-0.9-0.3-1.4-1-1.4c-0.7,0-1.3,0.3-1.3,1.1v4.8H830.1z"/>
			<path class="st0" d="M838.3,467.1v-0.3c0-0.6,0.4-1,1.2-1c0.8,0,1.2,0.4,1.2,1v0.3c0,0.6-0.4,1-1.2,1
				C838.6,468.1,838.3,467.7,838.3,467.1z M838.5,468.9h2.1v7.4h-2.1V468.9z"/>
			<path class="st0" d="M842,472.6c0-2.4,1.2-3.8,3.4-3.8c1.5,0,2.5,0.7,2.9,1.9l-1.7,0.7c-0.1-0.6-0.5-1-1.3-1
				c-0.8,0-1.3,0.6-1.3,1.5v1.4c0,0.9,0.4,1.5,1.3,1.5c0.8,0,1.2-0.5,1.4-1.1l1.6,0.7c-0.5,1.4-1.5,2-3,2
				C843.2,476.4,842,474.9,842,472.6z"/>
			<path class="st0" d="M855.1,476.3c-0.7,0-1.3-0.5-1.4-1.3h-0.1c-0.2,1-1,1.5-2.2,1.5c-1.5,0-2.3-0.9-2.3-2.1
				c0-1.6,1.2-2.3,3.2-2.3h1.2v-0.5c0-0.7-0.4-1.2-1.2-1.2c-0.8,0-1.3,0.4-1.6,0.9l-1.2-1.1c0.6-0.9,1.4-1.4,3-1.4
				c2.1,0,3.1,1,3.1,2.7v3.2h0.7v1.6H855.1z M853.5,474v-0.9h-1c-0.8,0-1.2,0.3-1.2,0.8v0.2c0,0.5,0.3,0.8,1,0.8
				C852.9,475,853.5,474.7,853.5,474z"/>
			<path class="st0" d="M859.7,476.3c-1.4,0-2.1-0.7-2.1-2v-8.3h2.1v8.8h0.9v1.6H859.7z"/>
			<path class="st0" d="M799,491.6l1.4-1.4c0.7,0.7,1.5,1.1,2.5,1.1c1,0,1.5-0.5,1.5-1.2c0-0.5-0.2-0.9-1.1-1.1l-1-0.1
				c-2.1-0.3-3-1.3-3-2.9c0-1.8,1.4-3,3.7-3c1.5,0,2.6,0.5,3.4,1.4l-1.4,1.4c-0.5-0.5-1.1-0.9-2.1-0.9c-1,0-1.4,0.4-1.4,1
				c0,0.7,0.3,0.9,1.2,1.1l1,0.2c2,0.3,3,1.2,3,2.9c0,1.9-1.4,3.2-3.8,3.2C801,493.2,799.8,492.6,799,491.6z"/>
			<path class="st0" d="M812.5,491.8L812.5,491.8c-0.3,0.7-0.9,1.4-2.1,1.4c-1.5,0-2.3-1.1-2.3-2.9v-4.6h2.1v4.4
				c0,0.9,0.3,1.4,1,1.4c0.6,0,1.3-0.4,1.3-1.1v-4.8h2.1v7.4h-2.1V491.8z"/>
			<path class="st0" d="M816.5,485.7h2.1v1.2h0.1c0.2-0.8,1-1.4,2-1.4c1.9,0,2.8,1.3,2.8,3.8c0,2.5-1,3.9-2.8,3.9
				c-1,0-1.8-0.6-2-1.4h-0.1v4h-2.1V485.7z M821.3,490v-1.3c0-0.9-0.6-1.5-1.4-1.5s-1.4,0.4-1.4,1.1v2.2c0,0.7,0.6,1.1,1.4,1.1
				S821.3,490.9,821.3,490z"/>
			<path class="st0" d="M825,485.7h2.1v1.2h0.1c0.2-0.8,1-1.4,2-1.4c1.9,0,2.8,1.3,2.8,3.8c0,2.5-1,3.9-2.8,3.9c-1,0-1.8-0.6-2-1.4
				h-0.1v4H825V485.7z M829.8,490v-1.3c0-0.9-0.6-1.5-1.4-1.5s-1.4,0.4-1.4,1.1v2.2c0,0.7,0.6,1.1,1.4,1.1S829.8,490.9,829.8,490z"
				/>
			<path class="st0" d="M833,489.4c0-2.4,1.3-3.8,3.4-3.8s3.4,1.5,3.4,3.8s-1.3,3.9-3.4,3.9S833,491.7,833,489.4z M837.8,490.1v-1.5
				c0-0.9-0.5-1.5-1.3-1.5s-1.3,0.5-1.3,1.5v1.5c0,0.9,0.5,1.5,1.3,1.5S837.8,491.1,837.8,490.1z"/>
			<path class="st0" d="M841.4,493.1v-7.4h2.1v1.6h0.1c0.2-0.8,0.7-1.6,1.9-1.6h0.4v1.9h-0.5c-1.2,0-1.8,0.3-1.8,1.1v4.3H841.4z"/>
			<path class="st0" d="M849.7,493.1c-1.4,0-2.2-0.7-2.2-2.1v-3.6h-1v-1.6h0.5c0.6,0,0.7-0.3,0.7-0.8v-1.2h1.9v2h1.5v1.6h-1.5v4.1
				h1.3v1.6H849.7z"/>
		</g>
		<g>
			<g>
				<polygon class="st0" points="777.7,467 763.5,481.2 756.3,474.1 753.1,477.4 763.5,487.7 781,470.2 				"/>
			</g>
			<g>
				<path class="st0" d="M763.5,487.7l-10.4-10.4l3.3-3.3l7.1,7.1l14.3-14.3l3.3,3.3L763.5,487.7z"/>
			</g>
		</g>
	</g>
	<g>
		<g>
			<path class="st0" d="M830.6,557.6l-0.8-0.6l1.3-1.6l-2-0.5l0.3-0.9l1.9,0.7l-0.1-2.1h1l-0.1,2.1l1.9-0.7l0.3,0.9l-2,0.5l1.3,1.6
				l-0.8,0.6l-1.1-1.7L830.6,557.6z"/>
			<path class="st0" d="M835.6,558.2c0-3.3,1.5-5.1,3.9-5.1c1.6,0,2.7,0.8,3.4,2.1l-1,0.6c-0.4-1-1.2-1.7-2.4-1.7
				c-1.7,0-2.7,1.3-2.7,3.3v1.5c0,2,1,3.2,2.7,3.2c1.2,0,2.1-0.7,2.5-1.8l0.9,0.6c-0.6,1.4-1.8,2.2-3.4,2.2
				C837,563.2,835.6,561.5,835.6,558.2z"/>
			<path class="st0" d="M844.1,559.4c0-2.3,1.3-3.8,3.3-3.8c1.9,0,3.3,1.5,3.3,3.8s-1.3,3.8-3.3,3.8
				C845.4,563.2,844.1,561.7,844.1,559.4z M849.4,559.9v-1c0-1.5-0.9-2.3-2.1-2.3c-1.2,0-2.1,0.7-2.1,2.3v1c0,1.5,0.9,2.3,2.1,2.3
				C848.6,562.2,849.4,561.5,849.4,559.9z"/>
			<path class="st0" d="M852.5,563v-7.2h1.1v1.2h0.1c0.3-0.7,0.8-1.3,1.9-1.3c1,0,1.8,0.4,2.2,1.5h0c0.3-0.8,1-1.5,2.2-1.5
				c1.5,0,2.4,1,2.4,2.8v4.6h-1.1v-4.4c0-1.3-0.5-1.9-1.6-1.9c-0.9,0-1.7,0.4-1.7,1.4v5h-1.1v-4.4c0-1.3-0.5-1.9-1.6-1.9
				c-0.9,0-1.7,0.4-1.7,1.4v5H852.5z"/>
			<path class="st0" d="M864.6,553.5v-0.2c0-0.4,0.2-0.6,0.7-0.6s0.7,0.3,0.7,0.6v0.2c0,0.4-0.2,0.6-0.7,0.6
				S864.6,553.9,864.6,553.5z M864.7,555.8h1.1v7.2h-1.1V555.8z"/>
			<path class="st0" d="M868.2,563v-7.2h1.1v1.2h0.1c0.4-0.8,1-1.3,2-1.3c1.5,0,2.4,1,2.4,2.8v4.6h-1.1v-4.4c0-1.3-0.6-1.9-1.6-1.9
				c-0.9,0-1.8,0.4-1.8,1.4v5H868.2z"/>
			<path class="st0" d="M878.7,566c-2.3,0-3.2-0.6-3.2-1.8c0-0.8,0.4-1.2,1.1-1.4v-0.2c-0.4-0.2-0.6-0.5-0.6-1
				c0-0.7,0.5-1.1,1.2-1.3v-0.1c-0.9-0.4-1.4-1.2-1.4-2.2c0-1.5,1.1-2.5,2.7-2.5c0.5,0,1,0.1,1.4,0.3v-0.1c0-0.6,0.2-1,0.8-1h1.1v1
				h-1.4v0.5c0.5,0.4,0.8,1.1,0.8,1.9c0,1.5-1.1,2.5-2.7,2.5c-0.2,0-0.5,0-0.7-0.1c-0.5,0.1-1,0.4-1,0.8c0,0.4,0.4,0.5,1.1,0.5h1.5
				c1.8,0,2.6,0.7,2.6,1.9C882.2,565.3,881.1,566,878.7,566z M879.7,563h-2.4c-0.5,0.2-0.7,0.5-0.7,1c0,0.6,0.4,1.2,1.6,1.2h1
				c1.2,0,2-0.4,2-1.2C881.2,563.3,880.8,563,879.7,563z M880.2,558.3v-0.4c0-1-0.6-1.4-1.6-1.4c-1,0-1.6,0.4-1.6,1.4v0.4
				c0,1,0.6,1.4,1.6,1.4C879.6,559.7,880.2,559.3,880.2,558.3z"/>
			<path class="st0" d="M886.2,561.8l0.8-0.6c0.6,0.7,1.2,1.1,2.1,1.1c1,0,1.5-0.4,1.5-1.2c0-0.6-0.3-1-1.3-1.1l-0.6-0.1
				c-1.3-0.2-2.3-0.7-2.3-2.1c0-1.4,1.1-2.1,2.6-2.1c1.2,0,1.9,0.4,2.5,1.2l-0.7,0.7c-0.3-0.4-0.9-0.9-1.9-0.9
				c-0.9,0-1.4,0.4-1.4,1.1c0,0.7,0.5,1,1.4,1.1l0.6,0.1c1.6,0.2,2.2,0.9,2.2,2c0,1.4-1,2.3-2.7,2.3
				C887.7,563.2,886.8,562.6,886.2,561.8z"/>
			<path class="st0" d="M893.1,559.4c0-2.3,1.3-3.8,3.3-3.8c1.9,0,3.3,1.5,3.3,3.8s-1.3,3.8-3.3,3.8
				C894.5,563.2,893.1,561.7,893.1,559.4z M898.4,559.9v-1c0-1.5-0.9-2.3-2.1-2.3c-1.2,0-2.1,0.7-2.1,2.3v1c0,1.5,0.9,2.3,2.1,2.3
				C897.6,562.2,898.4,561.5,898.4,559.9z"/>
			<path class="st0" d="M901,559.4c0-2.3,1.3-3.8,3.3-3.8c1.9,0,3.3,1.5,3.3,3.8s-1.3,3.8-3.3,3.8C902.3,563.2,901,561.7,901,559.4z
				 M906.3,559.9v-1c0-1.5-0.9-2.3-2.1-2.3c-1.2,0-2.1,0.7-2.1,2.3v1c0,1.5,0.9,2.3,2.1,2.3C905.4,562.2,906.3,561.5,906.3,559.9z"
				/>
			<path class="st0" d="M909.3,563v-7.2h1.1v1.2h0.1c0.4-0.8,1-1.3,2-1.3c1.5,0,2.4,1,2.4,2.8v4.6h-1.1v-4.4c0-1.3-0.6-1.9-1.6-1.9
				c-0.9,0-1.8,0.4-1.8,1.4v5H909.3z"/>
		</g>
	</g>
	<g>
		<path class="st0" d="M477.5,69.3c-14,0-25.4-11.4-25.4-25.4s11.4-25.4,25.4-25.4S503,29.9,503,43.9S491.6,69.3,477.5,69.3z
			 M477.5,19.5c-13.5,0-24.4,11-24.4,24.4s11,24.4,24.4,24.4s24.4-11,24.4-24.4S491,19.5,477.5,19.5z"/>
	</g>
	<g>
		<g>
			<path class="st1" d="M487.2,52.1h-18.1c-3.9,0-7.1-3.2-7.1-7.1s3.2-7.1,7.1-7.1c0.7,0,1.3,0.1,1.9,0.3c1.1-2.6,3.6-4.4,6.5-4.4
				c1.8,0,3.4,0.6,4.7,1.8c0.7-0.2,1.3-0.4,2.1-0.4c3.4,0,6.1,2.8,6.1,6.1c0,0,0,0,0,0c1.6,1.1,2.5,2.9,2.5,4.8
				C493,49.5,490.4,52.1,487.2,52.1z M469.1,39.6c-3,0-5.5,2.5-5.5,5.5s2.4,5.5,5.5,5.5h18.1c2.3,0,4.2-1.9,4.2-4.2
				c0-1.5-0.8-2.9-2.1-3.7l-0.4-0.3l0-0.5c0-0.1,0-0.2,0-0.4c0-2.5-2-4.6-4.6-4.6c-0.7,0-1.3,0.1-1.9,0.4l-0.5,0.2l-0.4-0.4
				c-1-1.1-2.4-1.7-4-1.7c-2.5,0-4.6,1.7-5.3,4l-0.2,0.9l-0.8-0.4C470.6,39.7,469.9,39.6,469.1,39.6z"/>
		</g>
	</g>
	<g>
		<path class="st0" d="M606.7,415.9H349.1v-224h257.6V415.9z M350.1,414.9h255.6v-222H350.1V414.9z"/>
	</g>
	<g>
		<path class="st0" d="M429,226.1l-1-3.3h-4.6l-1,3.3h-3l4.5-13.7h3.7l4.5,13.7H429z M425.8,215.1L425.8,215.1l-1.6,5.2h3.1
			L425.8,215.1z"/>
		<path class="st0" d="M436.4,212.3v8.4c0,1.9,0.7,2.9,2.5,2.9c1.8,0,2.5-1,2.5-2.9v-8.4h2.9v8.1c0,4.1-1.5,5.9-5.4,5.9
			s-5.4-1.8-5.4-5.9v-8.1H436.4z"/>
		<path class="st0" d="M452.9,215v11.1h-3V215h-3.7v-2.7h10.4v2.7H452.9z"/>
		<path class="st0" d="M457.6,219.2c0-4.7,2.4-7.1,6-7.1s6,2.4,6,7.1s-2.4,7.1-6,7.1S457.6,223.9,457.6,219.2z M466.6,220.2v-2
			c0-2.2-1.1-3.4-2.9-3.4s-2.9,1.2-2.9,3.4v2c0,2.2,1.1,3.4,2.9,3.4S466.6,222.4,466.6,220.2z"/>
		<path class="st0" d="M482.5,217.1L482.5,217.1l-1.1,2l-2.7,4.9l-2.6-4.8l-1-2.2H475v9.1h-2.8v-13.7h3.2l3.4,6.4h0l3.3-6.4h3.2
			v13.7h-2.8V217.1z"/>
		<path class="st0" d="M496.8,226.1l-1-3.3h-4.6l-1,3.3h-3l4.5-13.7h3.7l4.5,13.7H496.8z M493.5,215.1L493.5,215.1l-1.6,5.2h3.1
			L493.5,215.1z"/>
		<path class="st0" d="M506.2,215v11.1h-3V215h-3.7v-2.7h10.4v2.7H506.2z"/>
		<path class="st0" d="M512,226.1v-13.7h9.3v2.7H515v2.8h5.4v2.6H515v3h6.4v2.7H512z"/>
	</g>
	<g>
		<path class="st0" d="M395.6,343.3h-10.4v-2.7l6.8-8.4h-6.4v-2.7h9.9v2.7l-6.8,8.4h6.9V343.3z"/>
		<path class="st0" d="M397,338.1c0-3.3,1.7-5.4,4.8-5.4c3.4,0,4.8,2.5,4.8,5.3v0.9H400v0.2c0,1.4,0.7,2.2,2.3,2.2
			c1.2,0,1.9-0.6,2.5-1.2l1.5,1.8c-0.9,1.1-2.4,1.7-4.3,1.7C398.8,343.5,397,341.4,397,338.1z M400,337v0.2h3.6V337
			c0-1.3-0.6-2.1-1.7-2.1S400,335.7,400,337z"/>
		<path class="st0" d="M408,338.1c0-3.3,1.7-5.4,4.8-5.4c3.4,0,4.8,2.5,4.8,5.3v0.9H411v0.2c0,1.4,0.7,2.2,2.3,2.2
			c1.2,0,1.9-0.6,2.5-1.2l1.5,1.8c-0.9,1.1-2.4,1.7-4.3,1.7C409.8,343.5,408,341.4,408,338.1z M411,337v0.2h3.6V337
			c0-1.3-0.6-2.1-1.7-2.1S411,335.7,411,337z"/>
		<path class="st0" d="M419.7,328.7h2.9v6h0.1c0.3-1.1,1.4-2,2.8-2c2.6,0,4,1.9,4,5.4s-1.4,5.4-4,5.4c-1.3,0-2.5-0.8-2.8-2h-0.1v1.7
			h-2.9V328.7z M426.5,339v-1.8c0-1.3-0.8-2.1-1.9-2.1s-1.9,0.6-1.9,1.5v3c0,0.9,0.8,1.5,1.9,1.5S426.5,340.3,426.5,339z"/>
		<path class="st0" d="M431,338.1c0-3.3,1.7-5.4,4.8-5.4c3.4,0,4.8,2.5,4.8,5.3v0.9h-6.6v0.2c0,1.4,0.7,2.2,2.3,2.2
			c1.2,0,1.9-0.6,2.5-1.2l1.5,1.8c-0.9,1.1-2.4,1.7-4.3,1.7C432.8,343.5,431,341.4,431,338.1z M434.1,337v0.2h3.6V337
			c0-1.3-0.6-2.1-1.7-2.1S434.1,335.7,434.1,337z"/>
	</g>
	<g>
		<path class="st0" d="M368.7,364.9l-0.4-8.7h1l0.1,4.4l0.1,3h0l1.7-3.9l1.6-3.5h1.2l0.2,3.7l0.2,3.8h0l1.3-3.1l1.9-4.4h1.1
			l-3.9,8.7h-1.2l-0.2-4.6l-0.1-3h-0.1l-1.4,3.1l-2,4.5H368.7z"/>
		<path class="st0" d="M378.3,362.4c0-2.2,1.4-4.1,3.3-4.1c1.4,0,2.3,0.9,2.3,2.7c0,2.2-1.4,4.1-3.3,4.1
			C379.2,365.1,378.3,364.2,378.3,362.4z M382.7,362.2l0.2-0.9c0-0.2,0.1-0.4,0.1-0.6c0-0.9-0.5-1.5-1.5-1.5c-0.9,0-1.7,0.7-2,2
			l-0.2,0.9c0,0.2-0.1,0.4-0.1,0.6c0,0.9,0.5,1.5,1.5,1.5C381.6,364.2,382.4,363.5,382.7,362.2z"/>
		<path class="st0" d="M385,364.9l1.3-6.5h1l-0.3,1.3h0.1c0.4-0.6,0.9-1.3,1.9-1.3h0.4l-0.2,1h-0.5c-1.2,0-1.8,0.8-2,1.6l-0.8,3.8
			H385z"/>
		<path class="st0" d="M391.4,355.7h1l-1.2,5.8h0.1l1.2-1.1l2.2-1.9h1.2l-2.9,2.6l1.3,3h0.8l-0.2,0.9h-0.6c-0.6,0-0.9-0.2-1.1-0.7
			l-1.1-2.6l-1.1,1l-0.5,2.3h-1L391.4,355.7z"/>
		<path class="st0" d="M397,366c-0.2,0.9-0.6,1.4-1.6,1.4h-0.8l0.2-0.9h1.2l1.5-7.3h-1.1l0.2-0.9h1.1l0.3-1.4
			c0.2-0.9,0.6-1.4,1.6-1.4h1l-0.2,0.9H399l-0.4,2h1.3l-0.2,0.9h-1.3L397,366z"/>
		<path class="st0" d="M400.9,364.9c-0.6,0-0.9-0.3-0.9-0.8c0-0.1,0-0.2,0-0.3l1.6-8.2h1l-1.7,8.4h1l-0.2,0.9H400.9z"/>
		<path class="st0" d="M403.3,362.4c0-2.2,1.4-4.1,3.3-4.1c1.4,0,2.3,0.9,2.3,2.7c0,2.2-1.4,4.1-3.3,4.1
			C404.3,365.1,403.3,364.2,403.3,362.4z M407.8,362.2l0.2-0.9c0-0.2,0.1-0.4,0.1-0.6c0-0.9-0.5-1.5-1.5-1.5c-0.9,0-1.7,0.7-2,2
			l-0.2,0.9c0,0.2-0.1,0.4-0.1,0.6c0,0.9,0.5,1.5,1.5,1.5C406.7,364.2,407.5,363.5,407.8,362.2z"/>
		<path class="st0" d="M410.3,358.5h0.9l0.1,3.1l0.1,2.4h0.1l1-2.1l1.6-3.4h0.9l0.3,3.3l0.2,2.2h0.1l1-2.2l1.5-3.3h0.9l-2.9,6.5
			h-1.2l-0.3-3.5l-0.1-1.7h-0.1l-0.7,1.7l-1.7,3.5h-1.2L410.3,358.5z"/>
		<path class="st0" d="M422,364.9l1.8-8.7h5.1l-0.2,0.9h-4.1l-0.6,3h3.7l-0.2,0.9h-3.7l-0.6,3.1h4.3l-0.2,0.9H422z"/>
		<path class="st0" d="M429,364.9l1.3-6.5h1l-0.3,1.3h0.1c0.5-1,1.1-1.4,2-1.4c1.1,0,1.7,0.7,1.7,1.8c0,0.2,0,0.5-0.1,0.8l-0.6,3.1
			h0.9l-0.2,0.9h-0.9c-0.5,0-0.8-0.2-0.8-0.7c0-0.1,0-0.1,0-0.3l0.6-3c0-0.3,0.1-0.5,0.1-0.7c0-0.7-0.3-1.1-1-1.1
			c-0.5,0-0.8,0.2-1.2,0.5c-0.4,0.4-0.8,1.1-0.9,1.6l-0.7,3.6H429z"/>
		<path class="st0" d="M438.1,367.6c-1.7,0-2.6-0.5-2.6-1.4c0-0.7,0.4-1.2,1.3-1.4l0-0.1c-0.4-0.2-0.5-0.4-0.5-0.8
			c0-0.6,0.4-1.1,1.3-1.2l0-0.1c-0.6-0.3-0.9-0.9-0.9-1.6c0-1.5,1.1-2.6,2.7-2.6c0.5,0,0.9,0.1,1.2,0.3l0-0.2
			c0.1-0.5,0.4-0.9,0.9-0.9h0.9l-0.2,0.9h-1.1l-0.1,0.5c0.3,0.3,0.4,0.7,0.4,1.2c0,1.5-1.2,2.6-2.8,2.6c-0.2,0-0.3,0-0.5,0
			c-0.6,0.1-1,0.3-1,0.8c0,0.3,0.3,0.5,0.9,0.5h1.4c1.4,0,2,0.5,2,1.5C441.4,366.5,440.7,367.6,438.1,367.6z M439.4,364.9h-2.2
			c-0.5,0.2-0.8,0.6-0.8,1c0,0.5,0.3,0.9,1.4,0.9h0.6c1.4,0,2.1-0.5,2.1-1.2C440.4,365.2,440.2,364.9,439.4,364.9z M440.4,360.8
			c0.1-0.5,0.1-0.6,0.1-0.7c0-0.6-0.4-1-1.2-1c-0.9,0-1.4,0.5-1.5,1.2c-0.1,0.5-0.1,0.6-0.1,0.7c0,0.6,0.4,1,1.2,1
			C439.7,362,440.2,361.5,440.4,360.8z"/>
		<path class="st0" d="M443.5,364.9c-0.6,0-0.9-0.3-0.9-0.8c0-0.1,0-0.2,0-0.3l1.1-5.4h1l-1.1,5.6h0.9l-0.2,0.9H443.5z M444.1,356.5
			c0,0,0-0.1,0.1-0.4c0.1-0.3,0.3-0.5,0.7-0.5c0.4,0,0.5,0.2,0.5,0.4c0,0,0,0.1-0.1,0.4c-0.1,0.3-0.3,0.5-0.7,0.5
			C444.2,357,444.1,356.8,444.1,356.5z"/>
		<path class="st0" d="M445.8,364.9l1.3-6.5h1l-0.3,1.3h0.1c0.5-1,1.1-1.4,2-1.4c1.1,0,1.7,0.7,1.7,1.8c0,0.2,0,0.5-0.1,0.8
			l-0.6,3.1h0.9l-0.2,0.9h-0.9c-0.5,0-0.8-0.2-0.8-0.7c0-0.1,0-0.1,0-0.3l0.6-3c0.1-0.3,0.1-0.5,0.1-0.7c0-0.7-0.3-1.1-1-1.1
			c-0.5,0-0.8,0.2-1.2,0.5c-0.4,0.4-0.8,1.1-0.9,1.6l-0.7,3.6H445.8z"/>
		<path class="st0" d="M453,362.4c0-2.1,1.4-4.1,3.4-4.1c1.1,0,2.1,0.6,2.1,1.7c0,1.4-1.5,2.1-4.5,2.1c0,0.2,0,0.4,0,0.5
			c0,0.9,0.5,1.5,1.5,1.5c0.8,0,1.5-0.4,2-1l0.6,0.6c-0.8,1-1.7,1.3-2.7,1.3C453.9,365.1,453,364.1,453,362.4z M454.2,361.1
			l-0.1,0.4c2.8-0.1,3.3-0.5,3.3-1.4c0-0.7-0.6-0.9-1.2-0.9C455.3,359.2,454.4,359.9,454.2,361.1z"/>
	</g>
	<g>
		<g>
			<polygon class="st0" points="558.5,312.3 550.8,304.5 555.9,299.4 563.8,307.4 562.8,308.4 555.9,301.6 552.9,304.5 559.6,311.2 
							"/>
		</g>
	</g>
	<g>
		<path class="st0" d="M412.9,317.9c-15.3,0-27.8-12.5-27.8-27.8c0-15.3,12.5-27.8,27.8-27.8c15.3,0,27.8,12.5,27.8,27.8
			C440.7,305.4,428.2,317.9,412.9,317.9z M412.9,263.3c-14.8,0-26.8,12-26.8,26.8s12,26.8,26.8,26.8s26.8-12,26.8-26.8
			S427.7,263.3,412.9,263.3z"/>
	</g>
	<g>
		<g>
			
				<rect x="551.8" y="299.8" transform="matrix(0.7073 -0.7069 0.7069 0.7073 -51.0878 478.7674)" class="st0" width="1.5" height="2.6"/>
		</g>
	</g>
	<g>
		<g>
			<g>
				<circle class="st1" cx="419" cy="303.9" r="2.5"/>
			</g>
			<g>
				<path class="st1" d="M419,306.9c-1.1,0-2.1-0.6-2.6-1.6c-0.4-0.7-0.4-1.5-0.2-2.3c0.2-0.8,0.8-1.4,1.5-1.7
					c1.5-0.8,3.2-0.2,4,1.3c0.8,1.4,0.2,3.2-1.3,4C419.9,306.8,419.4,306.9,419,306.9z M419,302c-0.3,0-0.6,0.1-0.9,0.2
					c-0.5,0.2-0.8,0.7-1,1.1c-0.2,0.5-0.1,1,0.1,1.5l0,0c0.5,1,1.7,1.3,2.6,0.8c1-0.5,1.3-1.7,0.8-2.6c-0.2-0.5-0.7-0.8-1.2-1
					C419.4,302,419.2,302,419,302z"/>
			</g>
		</g>
		<g>
			<g>
				<circle class="st1" cx="397.8" cy="290.8" r="2.5"/>
			</g>
			<g>
				<path class="st1" d="M397.8,293.8c-1.1,0-2.1-0.6-2.6-1.6l0,0c-0.8-1.4-0.2-3.2,1.3-4s3.2-0.2,4,1.3c0.4,0.7,0.4,1.5,0.2,2.3
					c-0.2,0.8-0.8,1.4-1.5,1.7C398.8,293.6,398.3,293.8,397.8,293.8z M396.1,291.7c0.5,1,1.7,1.3,2.6,0.8c0.5-0.2,0.8-0.7,1-1.1
					c0.2-0.5,0.1-1-0.1-1.5c-0.5-1-1.7-1.3-2.6-0.8C396,289.6,395.6,290.7,396.1,291.7L396.1,291.7z"/>
			</g>
		</g>
		<g>
			<g>
				<circle class="st1" cx="420.3" cy="279.1" r="2.5"/>
			</g>
			<g>
				<path class="st1" d="M420.4,282.1c-1.1,0-2.1-0.6-2.6-1.6l0,0c-0.8-1.4-0.2-3.2,1.3-4s3.2-0.2,4,1.3c0.8,1.4,0.2,3.2-1.3,4
					C421.3,282,420.8,282.1,420.4,282.1z M418.6,280c0.5,1,1.7,1.3,2.6,0.8c1-0.5,1.3-1.7,0.8-2.6c-0.5-1-1.7-1.3-2.6-0.8
					C418.5,277.9,418.1,279,418.6,280L418.6,280z"/>
			</g>
		</g>
		<g>
			<g>
				<g>
					
						<rect x="405.9" y="285.5" transform="matrix(0.8874 -0.4611 0.4611 0.8874 -85.9845 219.9421)" class="st0" width="2.5" height="1"/>
				</g>
			</g>
			<g>
				<g>
					
						<rect x="401.7" y="287.6" transform="matrix(0.8874 -0.4611 0.4611 0.8874 -87.4668 218.248)" class="st0" width="2.5" height="1"/>
				</g>
			</g>
			<g>
				<g>
					
						<rect x="410.1" y="283.3" transform="matrix(0.8874 -0.4611 0.4611 0.8874 -84.5022 221.6362)" class="st0" width="2.5" height="1"/>
				</g>
			</g>
			<g>
				<g>
					
						<rect x="414.3" y="281.1" transform="matrix(0.8874 -0.4611 0.4611 0.8874 -83.0199 223.3303)" class="st0" width="2.5" height="1"/>
				</g>
			</g>
		</g>
		<g>
			<g>
				<g>
					
						<rect x="405.6" y="295.1" transform="matrix(0.4972 -0.8676 0.8676 0.4972 -52.863 501.3438)" class="st0" width="1" height="2.5"/>
				</g>
			</g>
			<g>
				<g>
					
						<rect x="401.5" y="292.7" transform="matrix(0.4972 -0.8676 0.8676 0.4972 -52.8858 496.5882)" class="st0" width="1" height="2.5"/>
				</g>
			</g>
			<g>
				<g>
					
						<rect x="409.8" y="297.4" transform="matrix(0.4972 -0.8676 0.8676 0.4972 -52.8402 506.0995)" class="st0" width="1" height="2.5"/>
				</g>
			</g>
			<g>
				<g>
					
						<rect x="413.9" y="299.8" transform="matrix(0.4972 -0.8676 0.8676 0.4972 -52.8175 510.8551)" class="st0" width="1" height="2.5"/>
				</g>
			</g>
		</g>
		<g>
			<g>
				<g>
					
						<rect x="418.8" y="288.6" transform="matrix(9.183344e-02 -0.9958 0.9958 9.183344e-02 93.6409 680.7928)" class="st0" width="2.5" height="1"/>
				</g>
			</g>
			<g>
				<g>
					
						<rect x="419.3" y="283.8" transform="matrix(9.183344e-02 -0.9958 0.9958 9.183344e-02 98.739 676.9377)" class="st0" width="2.5" height="1"/>
				</g>
			</g>
			<g>
				<g>
					
						<rect x="418.4" y="293.3" transform="matrix(9.183344e-02 -0.9958 0.9958 9.183344e-02 88.5428 684.6481)" class="st0" width="2.5" height="1"/>
				</g>
			</g>
			<g>
				<g>
					
						<rect x="418" y="298" transform="matrix(9.183344e-02 -0.9958 0.9958 9.183344e-02 83.4446 688.5032)" class="st0" width="2.5" height="1"/>
				</g>
			</g>
		</g>
	</g>
	<g>
		<path class="st0" d="M506.4,336.4c0-4.7,2.4-7.1,6-7.1s6,2.4,6,7.1s-2.4,7.1-6,7.1S506.4,341.1,506.4,336.4z M515.3,337.5v-2
			c0-2.2-1.1-3.4-2.9-3.4s-2.9,1.2-2.9,3.4v2c0,2.2,1.1,3.4,2.9,3.4S515.3,339.6,515.3,337.5z"/>
		<path class="st0" d="M520.8,333h2.9v1.7h0.1c0.3-1.1,1.4-2,2.8-2c2.6,0,4,1.9,4,5.4s-1.4,5.4-4,5.4c-1.3,0-2.5-0.8-2.8-2h-0.1v5.7
			h-2.9V333z M527.5,339v-1.8c0-1.3-0.8-2.1-1.9-2.1s-1.9,0.6-1.9,1.5v3c0,0.9,0.8,1.5,1.9,1.5S527.5,340.3,527.5,339z"/>
		<path class="st0" d="M532.1,338.1c0-3.3,1.7-5.4,4.8-5.4c3.4,0,4.8,2.5,4.8,5.3v0.9h-6.6v0.2c0,1.4,0.7,2.2,2.3,2.2
			c1.2,0,1.9-0.6,2.5-1.2l1.5,1.8c-0.9,1.1-2.4,1.7-4.3,1.7C533.9,343.5,532.1,341.4,532.1,338.1z M535.1,337v0.2h3.6V337
			c0-1.3-0.6-2.1-1.7-2.1S535.1,335.7,535.1,337z"/>
		<path class="st0" d="M543.8,343.3V333h2.9v2.2h0.1c0.2-1.1,1-2.2,2.6-2.2h0.5v2.7h-0.7c-1.7,0-2.5,0.4-2.5,1.6v6H543.8z"/>
		<path class="st0" d="M559.1,343.3c-1,0-1.8-0.7-2-1.8H557c-0.3,1.3-1.5,2-3,2c-2.1,0-3.2-1.2-3.2-3c0-2.2,1.7-3.2,4.4-3.2h1.6
			v-0.6c0-1-0.5-1.6-1.7-1.6c-1.2,0-1.8,0.6-2.2,1.2l-1.7-1.5c0.8-1.2,2-2,4.2-2c2.9,0,4.4,1.3,4.4,3.8v4.5h1v2.3H559.1z
			 M556.8,340.2V339h-1.4c-1.1,0-1.7,0.4-1.7,1.2v0.3c0,0.7,0.5,1.1,1.4,1.1C556,341.5,556.8,341.1,556.8,340.2z"/>
		<path class="st0" d="M566.1,343.3c-2,0-3.1-1-3.1-3v-5.1h-1.5V333h0.7c0.8,0,1-0.4,1-1.1v-1.7h2.6v2.8h2v2.3h-2v5.8h1.9v2.3H566.1
			z"/>
		<path class="st0" d="M569.3,338.1c0-3.3,1.7-5.4,4.8-5.4c3.4,0,4.8,2.5,4.8,5.3v0.9h-6.6v0.2c0,1.4,0.7,2.2,2.3,2.2
			c1.2,0,1.9-0.6,2.5-1.2l1.5,1.8c-0.9,1.1-2.4,1.7-4.3,1.7C571.1,343.5,569.3,341.4,569.3,338.1z M572.3,337v0.2h3.6V337
			c0-1.3-0.6-2.1-1.7-2.1S572.3,335.7,572.3,337z"/>
	</g>
	<g>
		<path class="st0" d="M521.2,364.9l-1-8.7h1l0.5,4.4l0.3,3.3h0l1.7-3.3l2.3-4.4h1.1l-4.6,8.7H521.2z"/>
		<path class="st0" d="M527.7,364.9c-0.6,0-0.9-0.3-0.9-0.8c0-0.1,0-0.2,0-0.3l1.1-5.4h1l-1.1,5.6h0.9l-0.2,0.9H527.7z M528.2,356.5
			c0,0,0-0.1,0.1-0.4c0.1-0.3,0.3-0.5,0.7-0.5c0.4,0,0.5,0.2,0.5,0.4c0,0,0,0.1-0.1,0.4c-0.1,0.3-0.3,0.5-0.7,0.5
			C528.4,357,528.2,356.8,528.2,356.5z"/>
		<path class="st0" d="M529.7,363.9l0.7-0.6c0.5,0.6,1,0.9,1.8,0.9c0.9,0,1.5-0.4,1.5-1.2c0-0.4-0.2-0.8-1-0.9l-0.5-0.1
			c-1-0.2-1.7-0.6-1.7-1.7c0-1.1,0.8-2,2.4-2c1,0,1.6,0.3,2.1,1l-0.7,0.6c-0.3-0.4-0.8-0.7-1.5-0.7c-0.9,0-1.4,0.5-1.4,1.1
			c0,0.5,0.2,0.7,0.9,0.9l0.5,0.1c1,0.2,1.7,0.6,1.7,1.7c0,1.3-1,2.1-2.4,2.1C531.1,365.1,530.2,364.7,529.7,363.9z"/>
		<path class="st0" d="M536.9,364.9c-0.6,0-0.9-0.3-0.9-0.8c0-0.1,0-0.2,0-0.3l1.1-5.4h1l-1.1,5.6h0.9l-0.2,0.9H536.9z M537.4,356.5
			c0,0,0-0.1,0-0.4c0.1-0.3,0.3-0.5,0.7-0.5c0.4,0,0.5,0.2,0.5,0.4c0,0,0,0.1,0,0.4c-0.1,0.3-0.3,0.5-0.7,0.5
			C537.6,357,537.4,356.8,537.4,356.5z"/>
		<path class="st0" d="M541,355.7h1l-0.9,4.2h0c0.5-1.1,1.1-1.6,2.1-1.6c1.2,0,2,0.9,2,2.5c0,1.9-1,4.3-3.2,4.3
			c-0.8,0-1.5-0.4-1.7-1.2h0l-0.2,1.1h-1L541,355.7z M544,362.3l0.2-0.9c0-0.2,0.1-0.4,0.1-0.6c0-0.8-0.4-1.5-1.2-1.5
			c-0.6,0-1,0.3-1.4,0.6c-0.4,0.4-0.7,0.9-0.8,1.6l-0.3,1.3c-0.2,0.8,0.3,1.5,1.4,1.5C543,364.2,543.7,363.5,544,362.3z"/>
		<path class="st0" d="M547.4,364.9c-0.6,0-0.9-0.3-0.9-0.8c0-0.1,0-0.2,0-0.3l1.1-5.4h1l-1.1,5.6h0.9l-0.2,0.9H547.4z M547.9,356.5
			c0,0,0-0.1,0.1-0.4c0.1-0.3,0.3-0.5,0.7-0.5c0.4,0,0.5,0.2,0.5,0.4c0,0,0,0.1-0.1,0.4c-0.1,0.3-0.3,0.5-0.7,0.5
			C548,357,547.9,356.8,547.9,356.5z"/>
		<path class="st0" d="M550.7,364.9c-0.6,0-0.9-0.3-0.9-0.8c0-0.1,0-0.2,0-0.3l1.6-8.2h1l-1.7,8.4h1l-0.2,0.9H550.7z"/>
		<path class="st0" d="M554,364.9c-0.6,0-0.9-0.3-0.9-0.8c0-0.1,0-0.2,0-0.3l1.1-5.4h1l-1.1,5.6h0.9l-0.2,0.9H554z M554.5,356.5
			c0,0,0-0.1,0.1-0.4c0.1-0.3,0.3-0.5,0.7-0.5c0.4,0,0.5,0.2,0.5,0.4c0,0,0,0.1-0.1,0.4c-0.1,0.3-0.3,0.5-0.7,0.5
			C554.6,357,554.5,356.8,554.5,356.5z"/>
		<path class="st0" d="M557.4,364.9c-0.6,0-0.9-0.3-0.9-0.8c0-0.1,0-0.2,0-0.3l0.9-4.5h-1l0.2-0.9h0.5c0.5,0,0.6-0.2,0.7-0.6
			l0.2-1.2h0.9l-0.4,1.8h1.4l-0.2,0.9h-1.4l-1,4.8h1.3l-0.2,0.9H557.4z"/>
		<path class="st0" d="M565.2,358.5h1l-4.4,7.9c-0.4,0.8-0.7,1-1.4,1h-1l0.2-0.8h1.2l0.8-1.5l-1-6.7h0.9l0.5,3.2l0.3,2.4h0.1
			l1.2-2.4L565.2,358.5z"/>
	</g>
	<g>
		<g>
			<path class="st1" d="M542,304.9c-3.8,0-7.5-1.5-10.2-4.2c-2.7-2.7-4.2-6.3-4.2-10.2s1.5-7.5,4.2-10.2c2.7-2.7,6.3-4.2,10.2-4.2
				s7.5,1.5,10.2,4.2l0,0l0,0c2.7,2.7,4.2,6.3,4.2,10.2s-1.5,7.5-4.2,10.2C549.5,303.4,545.9,304.9,542,304.9z M542,277.6
				c-3.4,0-6.7,1.3-9.1,3.8c-2.4,2.4-3.8,5.7-3.8,9.1s1.3,6.7,3.8,9.1c2.4,2.4,5.7,3.8,9.1,3.8s6.7-1.3,9.1-3.8
				c2.4-2.4,3.8-5.7,3.8-9.1s-1.3-6.7-3.8-9.1l0,0C548.7,279,545.5,277.6,542,277.6z"/>
		</g>
	</g>
	<g>
		<path class="st0" d="M542.5,317.9c-15.3,0-27.8-12.5-27.8-27.8c0-15.3,12.5-27.8,27.8-27.8c15.3,0,27.8,12.5,27.8,27.8
			C570.3,305.4,557.8,317.9,542.5,317.9z M542.5,263.3c-14.8,0-26.8,12-26.8,26.8s12,26.8,26.8,26.8s26.8-12,26.8-26.8
			S557.3,263.3,542.5,263.3z"/>
	</g>
	<g>
		<g>
			<circle class="st1" cx="539.4" cy="295.7" r="2.5"/>
		</g>
		<g>
			<path class="st1" d="M539.5,298.7c-0.3,0-0.6,0-0.9-0.1c-0.8-0.2-1.4-0.8-1.7-1.5c-0.8-1.4-0.2-3.2,1.3-4c1.4-0.8,3.2-0.2,4,1.3
				c0.8,1.4,0.2,3.2-1.3,4C540.4,298.6,539.9,298.7,539.5,298.7z M539.4,293.8c-0.3,0-0.6,0.1-0.9,0.2c-1,0.5-1.3,1.7-0.8,2.6
				c0.2,0.5,0.7,0.8,1.1,1c0.5,0.2,1,0.1,1.5-0.1c1-0.5,1.3-1.7,0.8-2.6C540.8,294.1,540.2,293.8,539.4,293.8z"/>
		</g>
	</g>
	<g>
		<polygon class="st0" points="521.4,474.1 518.2,477.4 528.6,487.7 546.1,470.2 542.8,467 528.6,481.2 		"/>
		<path class="st2" d="M528.6,487.9L528.6,487.9L518,477.4l0.1-0.1l3.3-3.3l0.1,0.1l7,7l14.3-14.3l0.1,0.1l3.3,3.3l-0.1,0.1
			L528.6,487.9z M518.4,477.4l10.2,10.2l17.3-17.3l-3.1-3.1l-14.3,14.3l-0.1-0.1l-7-7L518.4,477.4z"/>
	</g>
	<g>
		<path class="st0" d="M336.6,101.3c0-8,4.1-12.4,10.5-12.4c4.4,0,7.1,1.8,8.9,5.6l-4.5,2.3c-0.6-2-1.9-3.3-4.4-3.3c-3,0-5,2-5,5.8
			v3.8c0,3.7,2,5.8,5,5.8c2.5,0,4-1.6,4.7-3.5l4.2,2.4c-1.8,3.6-4.6,5.7-8.9,5.7C340.7,113.4,336.6,109.3,336.6,101.3z"/>
		<path class="st0" d="M374,113l-1.7-5.6h-7.9l-1.7,5.6h-5.2l7.8-23.7h6.4l7.7,23.7H374z M368.4,93.9h-0.2l-2.6,9h5.4L368.4,93.9z"
			/>
		<path class="st0" d="M400.4,97.4h-0.1l-1.7,3.5l-4.6,8.4l-4.5-8.4l-1.8-3.7h-0.1V113h-4.9V89.2h5.5l5.8,11.1h0.1l5.7-11.1h5.5V113
			h-4.9V97.4z"/>
		<path class="st0" d="M415.4,89.2v14.6c0,3.3,1.2,5,4.3,5s4.3-1.7,4.3-5V89.2h5v14c0,7-2.5,10.1-9.3,10.1c-6.8,0-9.3-3.1-9.3-10.1
			v-14H415.4z"/>
		<path class="st0" d="M441.3,101.7L439,97h-0.1v16h-4.9V89.2h5.6l6.5,11.2l2.3,4.8h0.1v-16h4.9V113h-5.6L441.3,101.7z"/>
		<path class="st0" d="M458.7,89.2h8.9c6.3,0,10.4,4,10.4,11.9c0,7.9-4.1,11.9-10.4,11.9h-8.9V89.2z M467.6,108.4c3.1,0,5-1.7,5-5.4
			v-3.7c0-3.8-1.9-5.4-5-5.4h-3.8v14.5H467.6z"/>
		<path class="st0" d="M495.8,113l-1.7-5.6h-7.9l-1.7,5.6h-5.2l7.8-23.7h6.4l7.7,23.7H495.8z M490.2,93.9H490l-2.6,9h5.4L490.2,93.9
			z"/>
		<path class="st0" d="M511.5,101.3c0-8,4.1-12.4,10.5-12.4c4.4,0,7.1,1.8,8.9,5.6l-4.5,2.3c-0.6-2-1.9-3.3-4.4-3.3c-3,0-5,2-5,5.8
			v3.8c0,3.7,2,5.8,5,5.8c2.5,0,4-1.6,4.7-3.5l4.2,2.4c-1.8,3.6-4.6,5.7-8.9,5.7C515.7,113.4,511.5,109.3,511.5,101.3z"/>
		<path class="st0" d="M534.6,113V89.2h5.2v19.1h9v4.6H534.6z"/>
		<path class="st0" d="M550.3,101.1c0-8.1,4.1-12.3,10.4-12.3s10.4,4.2,10.4,12.3c0,8.1-4.1,12.3-10.4,12.3S550.3,109.2,550.3,101.1
			z M565.7,102.9v-3.5c0-3.8-1.9-5.9-5-5.9s-5,2.1-5,5.9v3.5c0,3.8,1.9,5.9,5,5.9S565.7,106.6,565.7,102.9z"/>
		<path class="st0" d="M580.4,89.2v14.6c0,3.3,1.2,5,4.3,5s4.3-1.7,4.3-5V89.2h5v14c0,7-2.5,10.1-9.3,10.1c-6.8,0-9.3-3.1-9.3-10.1
			v-14H580.4z"/>
		<path class="st0" d="M599.1,89.2h8.9c6.3,0,10.4,4,10.4,11.9c0,7.9-4.1,11.9-10.4,11.9h-8.9V89.2z M608.1,108.4c3.1,0,5-1.7,5-5.4
			v-3.7c0-3.8-1.9-5.4-5-5.4h-3.8v14.5H608.1z"/>
	</g>
	<g>
		<path class="st0" d="M315.7,147l-0.6-15.4h1.8l0.2,7.8l0.1,5.3h0.1l3-6.9l2.8-6.2h2.1l0.3,6.5l0.3,6.6h0.1l2.3-5.4l3.3-7.7h1.8
			l-6.9,15.4h-2l-0.4-8.1l-0.2-5.3h-0.1l-2.4,5.4l-3.5,8H315.7z"/>
		<path class="st0" d="M332.5,142.6c0-3.8,2.4-7.2,5.9-7.2c2.4,0,4.1,1.6,4.1,4.7c0,3.8-2.4,7.2-5.9,7.2
			C334.2,147.3,332.5,145.7,332.5,142.6z M340.4,142.2l0.3-1.7c0.1-0.3,0.1-0.7,0.1-1c0-1.6-0.9-2.7-2.6-2.7c-1.6,0-3.1,1.2-3.5,3.5
			l-0.3,1.7c-0.1,0.3-0.1,0.7-0.1,1c0,1.6,0.9,2.7,2.6,2.7C338.5,145.8,339.9,144.5,340.4,142.2z"/>
		<path class="st0" d="M344.3,147l2.3-11.4h1.7l-0.5,2.3h0.1c0.6-1.1,1.6-2.3,3.4-2.3h0.7l-0.3,1.7h-0.8c-2.1,0-3.2,1.3-3.5,2.9
			L346,147H344.3z"/>
		<path class="st0" d="M355.6,130.7h1.7l-2.1,10.2h0.1l2-1.9l3.8-3.4h2l-5.1,4.6l2.3,5.3h1.5l-0.3,1.5h-1c-1,0-1.5-0.3-1.9-1.2
			l-2-4.6l-2,1.8l-0.8,4h-1.7L355.6,130.7z"/>
		<path class="st0" d="M365.6,148.9c-0.3,1.5-1,2.5-2.8,2.5h-1.5l0.3-1.5h2l2.6-12.8h-1.9l0.3-1.5h1.9l0.5-2.4
			c0.3-1.5,1-2.5,2.8-2.5h1.7l-0.3,1.5h-2.3l-0.7,3.4h2.2l-0.3,1.5h-2.2L365.6,148.9z"/>
		<path class="st0" d="M372.4,147c-1,0-1.5-0.6-1.5-1.4c0-0.2,0-0.3,0.1-0.5l2.9-14.4h1.7l-3,14.8h1.7L374,147H372.4z"/>
		<path class="st0" d="M376.6,142.6c0-3.8,2.4-7.2,5.9-7.2c2.4,0,4.1,1.6,4.1,4.7c0,3.8-2.4,7.2-5.9,7.2
			C378.3,147.3,376.6,145.7,376.6,142.6z M384.4,142.2l0.3-1.7c0.1-0.3,0.1-0.7,0.1-1c0-1.6-0.9-2.7-2.6-2.7c-1.6,0-3.1,1.2-3.5,3.5
			l-0.3,1.7c-0.1,0.3-0.1,0.7-0.1,1c0,1.6,0.9,2.7,2.6,2.7C382.6,145.8,384,144.5,384.4,142.2z"/>
		<path class="st0" d="M388.8,135.7h1.6l0.2,5.5l0.1,4.2h0.1l1.7-3.7l2.8-6h1.7l0.5,5.7l0.3,3.9h0.1l1.7-3.8l2.6-5.8h1.7l-5.2,11.4
			h-2l-0.5-6.1l-0.2-2.9h-0.1l-1.3,2.9l-2.9,6.1h-2.2L388.8,135.7z"/>
		<path class="st0" d="M409.7,142.5c0-3.8,2.4-7.1,5.9-7.1c1.9,0,3.7,1,3.7,3c0,2.5-2.6,3.7-7.8,3.7c0,0.3-0.1,0.7-0.1,0.9
			c0,1.6,0.9,2.7,2.7,2.7c1.4,0,2.6-0.7,3.5-1.8l1.1,1c-1.4,1.7-3.1,2.3-4.7,2.3C411.3,147.3,409.7,145.6,409.7,142.5z M411.8,140.2
			l-0.1,0.6c4.9-0.2,5.9-0.9,5.9-2.4c0-1.2-1-1.6-2.1-1.6C413.7,136.9,412.2,138.2,411.8,140.2z"/>
		<path class="st0" d="M420.6,147l2.3-11.4h1.7l-0.5,2.2h0.1c0.8-1.7,1.8-2.5,3.5-2.5c2,0,2.9,1.2,2.9,3.1c0,0.4,0,0.9-0.2,1.5
			l-1.1,5.5h1.6l-0.3,1.5h-1.6c-0.8,0-1.4-0.4-1.4-1.3c0-0.1,0-0.2,0-0.5l1.1-5.3c0.1-0.4,0.1-0.9,0.1-1.2c0-1.3-0.5-1.9-1.7-1.9
			c-0.8,0-1.5,0.3-2.1,0.9c-0.7,0.8-1.3,1.9-1.5,2.8l-1.3,6.3H420.6z"/>
		<path class="st0" d="M436.5,151.7c-3,0-4.6-0.9-4.6-2.5c0-1.2,0.7-2.1,2.2-2.5l0-0.2c-0.6-0.3-0.9-0.7-0.9-1.4
			c0-1.1,0.7-1.8,2.3-2.2l0-0.2c-1-0.5-1.5-1.5-1.5-2.9c0-2.6,2-4.5,4.8-4.5c0.8,0,1.6,0.2,2.1,0.5l0-0.3c0.2-0.9,0.6-1.5,1.6-1.5
			h1.6l-0.3,1.5h-2l-0.2,0.9c0.5,0.6,0.7,1.3,0.7,2.2c0,2.6-2,4.5-4.9,4.5c-0.3,0-0.5,0-0.9-0.1c-1.1,0.2-1.8,0.6-1.8,1.3
			c0,0.6,0.5,0.8,1.5,0.8h2.5c2.5,0,3.5,0.9,3.5,2.6C442.4,149.8,441.1,151.7,436.5,151.7z M438.9,146.9H435c-0.9,0.4-1.3,1-1.3,1.8
			c0,0.9,0.6,1.6,2.4,1.6h1c2.5,0,3.6-0.9,3.6-2.1C440.7,147.4,440.2,146.9,438.9,146.9z M440.5,139.7c0.2-0.8,0.2-1,0.2-1.2
			c0-1.1-0.7-1.7-2.1-1.7c-1.6,0-2.4,0.9-2.7,2.2c-0.2,0.8-0.2,1-0.2,1.2c0,1.1,0.7,1.7,2.1,1.7C439.4,141.9,440.3,141,440.5,139.7z
			"/>
		<path class="st0" d="M446.1,147c-1,0-1.5-0.6-1.5-1.4c0-0.2,0-0.3,0.1-0.5l1.9-9.4h1.7l-2,9.9h1.6l-0.3,1.5H446.1z M447.1,132.2
			c0-0.1,0-0.2,0.1-0.6c0.1-0.5,0.5-0.9,1.2-0.9c0.7,0,0.9,0.4,0.9,0.8c0,0.1,0,0.2-0.1,0.6c-0.1,0.6-0.5,0.9-1.2,0.9
			C447.3,133,447.1,132.7,447.1,132.2z"/>
		<path class="st0" d="M450,147l2.3-11.4h1.7l-0.5,2.2h0.1c0.8-1.7,1.8-2.5,3.5-2.5c2,0,2.9,1.2,2.9,3.1c0,0.4,0,0.9-0.2,1.5
			l-1.1,5.5h1.6l-0.3,1.5h-1.6c-0.8,0-1.4-0.4-1.4-1.3c0-0.1,0-0.2,0-0.5l1.1-5.3c0.1-0.4,0.1-0.9,0.1-1.2c0-1.3-0.5-1.9-1.7-1.9
			c-0.8,0-1.5,0.3-2.1,0.9c-0.7,0.8-1.3,1.9-1.5,2.8l-1.3,6.3H450z"/>
		<path class="st0" d="M462.8,142.5c0-3.8,2.4-7.1,5.9-7.1c1.9,0,3.7,1,3.7,3c0,2.5-2.6,3.7-7.8,3.7c0,0.3-0.1,0.7-0.1,0.9
			c0,1.6,0.9,2.7,2.7,2.7c1.4,0,2.6-0.7,3.5-1.8l1.1,1c-1.4,1.7-3.1,2.3-4.7,2.3C464.3,147.3,462.8,145.6,462.8,142.5z M464.9,140.2
			l-0.1,0.6c4.9-0.2,5.9-0.9,5.9-2.4c0-1.2-1-1.6-2.1-1.6C466.7,136.9,465.3,138.2,464.9,140.2z"/>
		<path class="st0" d="M474,142.5c0-3.8,2.4-7.1,5.9-7.1c1.9,0,3.7,1,3.7,3c0,2.5-2.6,3.7-7.8,3.7c0,0.3-0.1,0.7-0.1,0.9
			c0,1.6,0.9,2.7,2.7,2.7c1.4,0,2.6-0.7,3.5-1.8l1.1,1c-1.4,1.7-3.1,2.3-4.7,2.3C475.6,147.3,474,145.6,474,142.5z M476.1,140.2
			l-0.1,0.6c4.9-0.2,5.9-0.9,5.9-2.4c0-1.2-1-1.6-2.1-1.6C478,136.9,476.5,138.2,476.1,140.2z"/>
		<path class="st0" d="M485,147l2.3-11.4h1.7l-0.5,2.3h0.1c0.6-1.1,1.6-2.3,3.4-2.3h0.7l-0.3,1.7h-0.8c-2.1,0-3.2,1.3-3.5,2.9
			l-1.4,6.8H485z"/>
		<path class="st0" d="M493.1,142.5c0-3.8,2.4-7.1,5.9-7.1c1.9,0,3.7,1,3.7,3c0,2.5-2.6,3.7-7.8,3.7c0,0.3-0.1,0.7-0.1,0.9
			c0,1.6,0.9,2.7,2.7,2.7c1.4,0,2.6-0.7,3.5-1.8l1.1,1c-1.4,1.7-3.1,2.3-4.7,2.3C494.7,147.3,493.1,145.6,493.1,142.5z M495.3,140.2
			l-0.1,0.6c4.9-0.2,5.9-0.9,5.9-2.4c0-1.2-1-1.6-2.1-1.6C497.1,136.9,495.7,138.2,495.3,140.2z"/>
		<path class="st0" d="M512.9,147c-1,0-1.5-0.5-1.5-1.4c0-0.2,0-0.4,0.1-0.6l0.1-0.5h-0.1c-0.9,1.9-2,2.7-3.7,2.7
			c-2.1,0-3.5-1.6-3.5-4.3c0-3.3,1.8-7.5,5.5-7.5c1.4,0,2.6,0.7,3,2.1h0.1l1.4-6.8h1.7l-3,14.8h1.6l-0.3,1.5H512.9z M510.7,144.6
			c0.7-0.7,1.2-1.6,1.4-2.7l0.5-2.3c0.3-1.4-0.5-2.6-2.5-2.6c-1.8,0-3.1,1.3-3.5,3.5l-0.3,1.7c-0.1,0.4-0.1,0.7-0.1,1.1
			c0,1.5,0.7,2.6,2.2,2.6C509.3,145.8,510.1,145.3,510.7,144.6z"/>
		<path class="st0" d="M523.9,148.9c-0.3,1.5-1,2.5-2.8,2.5h-1.5l0.3-1.5h2l2.6-12.8h-1.9l0.3-1.5h1.9l0.5-2.4
			c0.3-1.5,1-2.5,2.8-2.5h1.7l-0.3,1.5h-2.3l-0.7,3.4h2.2l-0.3,1.5h-2.2L523.9,148.9z"/>
		<path class="st0" d="M529.1,142.6c0-3.8,2.4-7.2,5.9-7.2c2.4,0,4.1,1.6,4.1,4.7c0,3.8-2.4,7.2-5.9,7.2
			C530.8,147.3,529.1,145.7,529.1,142.6z M536.9,142.2l0.3-1.7c0.1-0.3,0.1-0.7,0.1-1c0-1.6-0.9-2.7-2.6-2.7c-1.6,0-3.1,1.2-3.5,3.5
			l-0.3,1.7c-0.1,0.3-0.1,0.7-0.1,1c0,1.6,0.9,2.7,2.6,2.7C535,145.8,536.4,144.5,536.9,142.2z"/>
		<path class="st0" d="M540.9,147l2.3-11.4h1.7l-0.5,2.3h0.1c0.6-1.1,1.6-2.3,3.4-2.3h0.7l-0.3,1.7h-0.8c-2.1,0-3.2,1.3-3.5,2.9
			l-1.4,6.8H540.9z"/>
		<path class="st0" d="M556.3,147c-1,0-1.5-0.6-1.5-1.4c0-0.2,0-0.3,0.1-0.5l1.6-7.9h-1.7l0.3-1.5h0.9c0.8,0,1-0.3,1.1-1.1l0.4-2.1
			h1.6l-0.6,3.1h2.4l-0.3,1.5h-2.4l-1.7,8.4h2.2l-0.3,1.5H556.3z"/>
		<path class="st0" d="M564.4,130.7h1.7l-1.5,7.2h0.1c0.8-1.7,1.8-2.5,3.5-2.5c2,0,2.9,1.2,2.9,3.1c0,0.4,0,0.9-0.2,1.5l-1.1,5.5
			h1.6l-0.3,1.5h-1.6c-0.8,0-1.4-0.4-1.4-1.3c0-0.1,0-0.2,0-0.5l1.1-5.3c0.1-0.4,0.1-0.9,0.1-1.2c0-1.3-0.5-1.9-1.7-1.9
			c-0.8,0-1.5,0.3-2.1,0.9c-0.7,0.8-1.3,1.9-1.5,2.8l-1.3,6.3h-1.7L564.4,130.7z"/>
		<path class="st0" d="M573.8,142.5c0-3.8,2.4-7.1,5.9-7.1c1.9,0,3.7,1,3.7,3c0,2.5-2.6,3.7-7.8,3.7c0,0.3-0.1,0.7-0.1,0.9
			c0,1.6,0.9,2.7,2.7,2.7c1.4,0,2.6-0.7,3.5-1.8l1.1,1c-1.4,1.7-3.1,2.3-4.7,2.3C575.4,147.3,573.8,145.6,573.8,142.5z M576,140.2
			l-0.1,0.6c4.9-0.2,5.9-0.9,5.9-2.4c0-1.2-1-1.6-2.1-1.6C577.8,136.9,576.4,138.2,576,140.2z"/>
		<path class="st0" d="M590.3,142.6c0-3.9,2.1-7.2,5.6-7.2c2,0,3.3,1.1,3.8,2.7l-1.4,0.6c-0.4-1.2-1.1-1.8-2.4-1.8
			c-1.8,0-3,1.2-3.4,3.2l-0.4,1.8c-0.1,0.3-0.1,0.7-0.1,1c0,1.6,0.9,2.8,2.6,2.8c1.1,0,2-0.5,2.9-2.2l1.3,0.7
			c-0.9,2-2.5,3.1-4.4,3.1C591.8,147.3,590.3,145.4,590.3,142.6z"/>
		<path class="st0" d="M602.6,147c-1,0-1.5-0.6-1.5-1.4c0-0.2,0-0.3,0.1-0.5l2.9-14.4h1.7l-3,14.8h1.7l-0.3,1.5H602.6z"/>
		<path class="st0" d="M606.8,142.6c0-3.8,2.4-7.2,5.9-7.2c2.4,0,4.1,1.6,4.1,4.7c0,3.8-2.4,7.2-5.9,7.2
			C608.5,147.3,606.8,145.7,606.8,142.6z M614.7,142.2l0.3-1.7c0.1-0.3,0.1-0.7,0.1-1c0-1.6-0.9-2.7-2.6-2.7c-1.6,0-3.1,1.2-3.5,3.5
			l-0.3,1.7c-0.1,0.3-0.1,0.7-0.1,1c0,1.6,0.9,2.7,2.6,2.7C612.8,145.8,614.2,144.5,614.7,142.2z"/>
		<path class="st0" d="M622.5,135.7l-1.4,7c-0.1,0.4-0.1,0.9-0.1,1.2c0,1.3,0.5,1.9,1.7,1.9c0.8,0,1.5-0.3,2-0.9
			c0.8-0.8,1.3-2,1.5-2.8l1.3-6.3h1.7l-2,9.9h1.6l-0.3,1.5H627c-1,0-1.5-0.6-1.5-1.4c0-0.2,0-0.3,0.1-0.6l0-0.2h-0.1
			c-0.8,1.7-1.8,2.5-3.4,2.5c-1.9,0-2.9-1.2-2.9-3.1c0-0.4,0-0.9,0.2-1.5l1.4-7H622.5z"/>
		<path class="st0" d="M639.8,147c-1,0-1.5-0.5-1.5-1.4c0-0.2,0-0.4,0.1-0.6l0.1-0.5h-0.1c-0.9,1.9-2,2.7-3.7,2.7
			c-2.1,0-3.5-1.6-3.5-4.3c0-3.3,1.8-7.5,5.5-7.5c1.4,0,2.6,0.7,3,2.1h0.1l1.4-6.8h1.7l-3,14.8h1.6l-0.3,1.5H639.8z M637.6,144.6
			c0.7-0.7,1.2-1.6,1.4-2.7l0.5-2.3c0.3-1.4-0.5-2.6-2.5-2.6c-1.8,0-3.1,1.3-3.5,3.5l-0.3,1.7c-0.1,0.4-0.1,0.7-0.1,1.1
			c0,1.5,0.7,2.6,2.2,2.6C636.2,145.8,637,145.3,637.6,144.6z"/>
	</g>
	<g>
		<path class="st0" d="M318.6,415.9H61v-224h257.6V415.9z M62,414.9h255.6v-222H62V414.9z"/>
	</g>
	<g>
		<path class="st0" d="M153.9,211.5h5.2c3.6,0,6,2.2,6,6.6c0,4.4-2.4,6.6-6,6.6h-5.2V211.5z M159.1,222.1c1.8,0,2.9-0.9,2.9-3v-2
			c0-2.1-1.1-3-2.9-3h-2.2v8.1H159.1z"/>
		<path class="st0" d="M167.6,224.7v-13.2h9.3v2.5h-6.4v2.7h5.4v2.5h-5.4v2.8h6.4v2.5H167.6z"/>
		<path class="st0" d="M178.8,222.8l2-1.9c0.9,1,2.1,1.5,3.4,1.5c1.5,0,2.2-0.6,2.2-1.6c0-0.7-0.3-1.2-1.6-1.4l-1.4-0.2
			c-2.9-0.4-4.2-1.7-4.2-3.9c0-2.4,1.9-4,5.2-4c2.1,0,3.6,0.7,4.8,1.8l-2,1.9c-0.6-0.7-1.5-1.2-3-1.2c-1.3,0-2,0.5-2,1.3
			c0,0.9,0.5,1.2,1.6,1.4l1.4,0.2c2.8,0.4,4.2,1.6,4.2,3.9c0,2.5-1.9,4.3-5.3,4.3C181.6,224.9,180,224,178.8,222.8z"/>
		<path class="st0" d="M191.3,224.7v-2.3h1.8v-8.6h-1.8v-2.3h6.5v2.3h-1.8v8.6h1.8v2.3H191.3z"/>
		<path class="st0" d="M209,222.6L209,222.6c-0.3,1.3-1.6,2.3-3.6,2.3c-3.1,0-5.6-2.3-5.6-6.7c0-4.4,2.5-6.9,6.2-6.9
			c2.4,0,4.3,1,5.3,3.1l-2.4,1.3c-0.4-1-1.3-1.8-2.9-1.8c-1.8,0-3,1-3,3.2v2.1c0,2.2,1.2,3.2,3,3.2c1.5,0,2.7-0.7,2.7-2v-0.7h-2.6
			v-2.4h5.4v7.3H209V222.6z"/>
		<path class="st0" d="M218.7,218.5l-1.3-2.6h-0.1v8.9h-2.8v-13.2h3.3l3.8,6.2l1.3,2.6h0.1v-8.9h2.8v13.2h-3.3L218.7,218.5z"/>
	</g>
	<g>
		<g>
			<path class="st0" d="M229,334.3L229,334.3l-1.1,2l-2.7,4.9l-2.6-4.8l-1-2.2h-0.1v9.1h-2.8v-13.7h3.2l3.4,6.4h0l3.3-6.4h3.2v13.7
				H229V334.3z"/>
			<path class="st0" d="M234.1,338.1c0-3.3,1.8-5.4,4.8-5.4c3,0,4.8,2.1,4.8,5.4s-1.8,5.4-4.8,5.4
				C235.9,343.5,234.1,341.5,234.1,338.1z M240.7,339.2v-2.1c0-1.3-0.7-2-1.8-2c-1.1,0-1.8,0.7-1.8,2v2.1c0,1.3,0.7,2,1.8,2
				C240.1,341.2,240.7,340.5,240.7,339.2z"/>
			<path class="st0" d="M252.1,341.6L252.1,341.6c-0.4,1.1-1.5,2-2.9,2c-2.6,0-4-1.9-4-5.4s1.4-5.4,4-5.4c1.3,0,2.5,0.8,2.8,2h0.1
				v-6h2.9v14.6h-2.9V341.6z M252.1,339.7v-3c0-0.9-0.8-1.5-1.9-1.5s-1.9,0.8-1.9,2.1v1.8c0,1.3,0.8,2.1,1.9,2.1
				S252.1,340.6,252.1,339.7z"/>
			<path class="st0" d="M257.1,338.1c0-3.3,1.7-5.4,4.8-5.4c3.4,0,4.8,2.5,4.8,5.3v0.9h-6.6v0.2c0,1.4,0.7,2.2,2.3,2.2
				c1.2,0,1.9-0.6,2.5-1.2l1.5,1.8c-0.9,1.1-2.4,1.7-4.3,1.7C258.9,343.5,257.1,341.4,257.1,338.1z M260.1,337v0.2h3.6V337
				c0-1.3-0.6-2.1-1.7-2.1S260.1,335.7,260.1,337z"/>
			<path class="st0" d="M271.7,343.3c-2,0-2.9-1-2.9-2.8v-11.7h2.9V341h1.3v2.3H271.7z"/>
			<path class="st0" d="M274.1,338.1c0-3.3,1.7-5.4,4.8-5.4c3.4,0,4.8,2.5,4.8,5.3v0.9h-6.6v0.2c0,1.4,0.7,2.2,2.3,2.2
				c1.2,0,1.9-0.6,2.5-1.2l1.5,1.8c-0.9,1.1-2.4,1.7-4.3,1.7C275.9,343.5,274.1,341.4,274.1,338.1z M277.1,337v0.2h3.6V337
				c0-1.3-0.6-2.1-1.7-2.1S277.1,335.7,277.1,337z"/>
			<path class="st0" d="M285.8,343.3V333h2.9v2.2h0.1c0.2-1.1,1-2.2,2.6-2.2h0.5v2.7h-0.7c-1.7,0-2.5,0.4-2.5,1.6v6H285.8z"/>
		</g>
	</g>
	<g>
		<path class="st0" d="M234.7,356.2h2.6c1.9,0,3,1.2,3,3.4c0,2.7-1.6,5.3-4.4,5.3h-3L234.7,356.2z M235.9,364c1.5,0,2.6-1,2.9-2.7
			l0.3-1.3c0-0.2,0.1-0.5,0.1-0.8c0-1.4-0.8-2.1-2-2.1h-1.7l-1.4,6.9H235.9z"/>
		<path class="st0" d="M241.2,362.4c0-2.1,1.4-4.1,3.4-4.1c1.1,0,2.1,0.6,2.1,1.7c0,1.4-1.5,2.1-4.5,2.1c0,0.2,0,0.4,0,0.5
			c0,0.9,0.5,1.5,1.5,1.5c0.8,0,1.5-0.4,2-1l0.6,0.6c-0.8,1-1.7,1.3-2.7,1.3C242.1,365.1,241.2,364.1,241.2,362.4z M242.4,361.1
			l-0.1,0.4c2.8-0.1,3.3-0.5,3.3-1.4c0-0.7-0.6-0.9-1.2-0.9C243.5,359.2,242.6,359.9,242.4,361.1z"/>
		<path class="st0" d="M247.2,363.9l0.7-0.6c0.5,0.6,1,0.9,1.8,0.9c0.9,0,1.5-0.4,1.5-1.2c0-0.4-0.2-0.8-1-0.9l-0.5-0.1
			c-1-0.2-1.7-0.6-1.7-1.7c0-1.1,0.8-2,2.4-2c1,0,1.6,0.3,2.1,1l-0.7,0.6c-0.3-0.4-0.8-0.7-1.5-0.7c-0.9,0-1.4,0.5-1.4,1.1
			c0,0.5,0.2,0.7,0.9,0.9l0.5,0.1c1,0.2,1.7,0.6,1.7,1.7c0,1.3-1,2.1-2.4,2.1C248.6,365.1,247.7,364.7,247.2,363.9z"/>
		<path class="st0" d="M255.2,355.7h1l-1.2,5.8h0.1l1.2-1.1l2.2-1.9h1.2l-2.9,2.6l1.3,3h0.8l-0.2,0.9h-0.6c-0.6,0-0.9-0.2-1.1-0.7
			l-1.1-2.6l-1.1,1l-0.5,2.3h-1L255.2,355.7z"/>
		<path class="st0" d="M261,364.9c-0.6,0-0.9-0.3-0.9-0.8c0-0.1,0-0.2,0-0.3l0.9-4.5h-1l0.2-0.9h0.5c0.5,0,0.6-0.2,0.7-0.6l0.2-1.2
			h0.9l-0.3,1.8h1.4l-0.2,0.9H262l-1,4.8h1.3l-0.2,0.9H261z"/>
		<path class="st0" d="M263.8,362.4c0-2.2,1.4-4.1,3.3-4.1c1.4,0,2.3,0.9,2.3,2.7c0,2.2-1.4,4.1-3.3,4.1
			C264.8,365.1,263.8,364.2,263.8,362.4z M268.3,362.2l0.2-0.9c0-0.2,0.1-0.4,0.1-0.6c0-0.9-0.5-1.5-1.5-1.5c-0.9,0-1.7,0.7-2,2
			l-0.2,0.9c0,0.2-0.1,0.4-0.1,0.6c0,0.9,0.5,1.5,1.5,1.5C267.2,364.2,268,363.5,268.3,362.2z"/>
		<path class="st0" d="M271.8,358.5h1l-0.3,1.4h0c0.5-1.1,1.1-1.6,2.1-1.6c1.2,0,2,0.9,2,2.5c0,1.9-1,4.3-3.2,4.3
			c-0.8,0-1.5-0.4-1.7-1.2h0l-0.7,3.6h-1L271.8,358.5z M275.4,362.3l0.2-0.9c0-0.2,0.1-0.4,0.1-0.6c0-0.8-0.4-1.5-1.2-1.5
			c-0.6,0-1,0.3-1.4,0.6c-0.4,0.4-0.7,0.9-0.8,1.6l-0.3,1.3c-0.2,0.8,0.3,1.5,1.4,1.5C274.4,364.2,275.1,363.5,275.4,362.3z"/>
	</g>
	<g>
		<g id="modeler_5_">
			<g id="modeler-y-line_9_">
				<g>
					<path class="st0" d="M260.1,284h-0.8v-2h0.8V284z M260.1,279.9h-0.8v-2h0.8V279.9z M260.1,275.9h-0.8v-2h0.8V275.9z
						 M260.1,271.8v-0.6c-0.3,0-0.5,0-0.8,0v0.7H260.1z"/>
				</g>
			</g>
			<g id="modeler-y-line_8_">
				<g>
					<path class="st0" d="M260.1,271.8h-0.8v-2h0.8V271.8z M260.1,267.8h-0.8v-2h0.8V267.8z"/>
				</g>
			</g>
			<g id="modeler-x-line_17_">
				<g>
					<path class="st0" d="M245,288.3H243v-0.8h1.9V288.3z M241.1,288.3h-1.9v-0.8h1.9V288.3z M237.3,288.3h-1.9v-0.8h1.9V288.3z
						 M233.4,288.3h-1v-0.8h1V288.3z M277.3,288.3h-1.9v-0.8h1.9V288.3z M273.4,288.3h-1.9v-0.8h1.9V288.3z M269.6,288.3h-1.9v-0.8
						h1.9V288.3z M265.7,288.3h-1.9v-0.8h1.9V288.3z"/>
				</g>
			</g>
			<g id="modeler-hand_5_">
				<g>
					<path class="st0" d="M262.2,300.4c-0.1-0.4-0.3-0.8-0.6-1.1c-0.2-0.2-0.4-0.3-0.7-0.4c-0.2,0-0.4,0-0.6,0
						c0-0.2-0.2-0.6-0.4-0.8c-0.2-0.2-0.5-0.4-1.1-0.4c-0.2,0-0.4,0-0.6,0.1c-0.1-0.2-0.2-0.3-0.3-0.5c-0.2-0.2-0.5-0.4-1.1-0.4
						c-0.8,0-1.2,0.5-1.4,1c-0.1,0-0.3-0.1-0.5-0.1c-0.5,0-0.8,0.2-1.1,0.4c-0.5,0.6-0.5,1.4-0.5,1.5v0.4c-0.6,0-1.1,0.2-1.4,0.5
						c-0.5,0.5-0.6,1.1-0.6,1.9c0,0.3,0,0.6,0,1c0,0.1,0,0.2,0,0.3c0,0.2,0,0.3,0,0.4c0,1.4,0.7,2.1,1.4,2.9l0.3,0.4
						c1.3,1.2,2.6,1.6,5.2,1.6c3,0,4.3-1.6,4.3-5.2v-2.6C262.3,301.1,262.3,300.8,262.2,300.4z M261.2,301.5v2.5
						c0,3.5-1.3,4.2-3.3,4.2c-2.5,0-3.4-0.3-4.4-1.3c-0.1-0.1-0.2-0.2-0.4-0.4c-0.7-0.7-1.1-1.1-1.1-2.1c0-0.1,0-0.1,0-0.2
						c0-0.1,0-0.2,0-0.4c0-0.3,0-0.6,0-0.8c0-0.7,0.1-1.1,0.3-1.3c0.1-0.2,0.4-0.3,0.7-0.3v0.8l-0.3,1l0,0.2c0,0.1,0,0.1,0.1,0.1
						c0.1,0.1,0.2,0,0.2,0l0.2-0.3l0.8-1V302V300c0-0.1,0-0.6,0.2-0.8c0.1-0.1,0.2-0.2,0.4-0.2c0.3,0,0.4,0.2,0.4,0.4v0.4
						c0,0.2,0.2,0.5,0.5,0.5c0.3,0,0.5-0.3,0.5-0.5v-1.3c0-0.1,0-0.5,0.5-0.5c0.3,0,0.5,0.2,0.5,0.5v1.2c0,0.3,0.2,0.6,0.5,0.6
						c0.3,0,0.5-0.3,0.5-0.5v-0.5c0-0.3,0.2-0.5,0.5-0.5c0.4,0,0.5,0.4,0.5,0.6v0.8c0,0.3,0.2,0.5,0.4,0.5c0.3,0,0.5-0.1,0.5-0.4
						c0,0,0-0.4,0.4-0.3c0.1,0,0.2,0.1,0.3,0.2c0.3,0.4,0.4,1,0.4,1.1V301.5L261.2,301.5z"/>
				</g>
			</g>
			<g id="modeler-blue-circle_5_">
				<path class="st1" d="M251.1,302.6c-3.4-1.3-5.8-4.6-5.8-8.4c0-5,4-9,9-9c5,0,9,4,9,9c0,1.9-0.6,3.6-1.6,5.1
					c0.4,0.3,0.5,0.8,0.6,1.1c1.3-1.7,2.1-3.9,2.1-6.2c0-5.6-4.6-10.1-10.1-10.1s-10.1,4.6-10.1,10.1c0,4.5,2.9,8.3,7,9.6
					c0-0.1,0-0.2,0-0.3C251.1,303.2,251.1,302.9,251.1,302.6z"/>
			</g>
		</g>
	</g>
	<g>
		<path class="st0" d="M254.8,317.9c-15.3,0-27.8-12.5-27.8-27.8c0-15.3,12.5-27.8,27.8-27.8c15.3,0,27.8,12.5,27.8,27.8
			C282.6,305.4,270.2,317.9,254.8,317.9z M254.8,263.3c-14.8,0-26.8,12-26.8,26.8s12,26.8,26.8,26.8c14.8,0,26.8-12,26.8-26.8
			S269.6,263.3,254.8,263.3z"/>
	</g>
	<g id="modeler-x-line_16_">
		<g>
			<path class="st0" d="M281.1,288.3h-1.9v-0.8h1.9V288.3z"/>
		</g>
	</g>
	<g id="modeler-x-line_15_">
		<g>
			<path class="st0" d="M233.4,288.3h-1.9v-0.8h1.9V288.3z"/>
		</g>
	</g>
	<g id="modeler-x-line_14_">
		<g>
			<path class="st0" d="M229.5,288.3h-1.9v-0.8h1.9V288.3z"/>
		</g>
	</g>
	<g>
		<g>
			<path class="st0" d="M85.8,336.5c0-4.6,2.4-7.2,6.1-7.2c2.5,0,4.1,1,5.1,3.2l-2.6,1.3c-0.4-1.1-1.1-1.9-2.6-1.9
				c-1.8,0-2.9,1.2-2.9,3.3v2.2c0,2.2,1.2,3.3,2.9,3.3c1.5,0,2.3-0.9,2.7-2l2.4,1.4c-1,2.1-2.7,3.3-5.2,3.3
				C88.2,343.5,85.8,341.2,85.8,336.5z"/>
			<path class="st0" d="M106.6,343.3c-1,0-1.8-0.7-2-1.8h-0.1c-0.3,1.3-1.5,2-3,2c-2.1,0-3.2-1.2-3.2-3c0-2.2,1.7-3.2,4.4-3.2h1.6
				v-0.6c0-1-0.5-1.6-1.7-1.6c-1.2,0-1.8,0.6-2.2,1.2l-1.7-1.5c0.8-1.2,2-2,4.2-2c2.9,0,4.4,1.3,4.4,3.8v4.5h1v2.3H106.6z
				 M104.4,340.2V339h-1.4c-1.1,0-1.7,0.4-1.7,1.2v0.3c0,0.7,0.5,1.1,1.4,1.1C103.5,341.5,104.4,341.1,104.4,340.2z"/>
			<path class="st0" d="M109.1,333h2.8l1,4.2l0.7,3.1h0.1l0.8-3.1l1.2-4.2h2.7l1.2,4.2l0.8,3.1h0.1l0.7-3.1l1-4.2h2.7l-2.9,10.3h-3
				l-1.3-4.4l-0.7-2.7h-0.1l-0.7,2.7l-1.3,4.4h-3L109.1,333z"/>
			<path class="st0" d="M125.7,338.1c0-3.3,1.7-5.4,4.8-5.4c3.4,0,4.8,2.5,4.8,5.3v0.9h-6.6v0.2c0,1.4,0.7,2.2,2.3,2.2
				c1.2,0,1.9-0.6,2.5-1.2l1.5,1.8c-0.9,1.1-2.4,1.7-4.3,1.7C127.5,343.5,125.7,341.4,125.7,338.1z M128.8,337v0.2h3.6V337
				c0-1.3-0.6-2.1-1.7-2.1S128.8,335.7,128.8,337z"/>
			<path class="st0" d="M137.4,343.3V333h2.9v1.8h0.1c0.4-1.1,1.2-2,2.8-2c1.4,0,2.4,0.7,2.9,2.1h0.1c0.4-1.2,1.6-2.1,3.1-2.1
				c2,0,3.1,1.5,3.1,4.1v6.5h-2.9v-6.2c0-1.3-0.5-2-1.4-2c-0.9,0-1.7,0.5-1.7,1.5v6.7h-2.9v-6.2c0-1.3-0.5-2-1.4-2
				c-0.8,0-1.7,0.5-1.7,1.5v6.7H137.4z"/>
			<path class="st0" d="M154.4,338.1c0-3.3,1.8-5.4,4.8-5.4c3,0,4.8,2.1,4.8,5.4s-1.8,5.4-4.8,5.4
				C156.2,343.5,154.4,341.5,154.4,338.1z M161,339.2v-2.1c0-1.3-0.7-2-1.8-2c-1.1,0-1.8,0.7-1.8,2v2.1c0,1.3,0.7,2,1.8,2
				C160.4,341.2,161,340.5,161,339.2z"/>
		</g>
	</g>
	<g>
		<path class="st0" d="M107.7,361.7c0-2.9,1.7-5.6,4.4-5.6c1.7,0,3,1.2,3,3.4c0,2.9-1.7,5.6-4.4,5.6
			C109,365.1,107.7,363.9,107.7,361.7z M113.8,361.3l0.2-1.3c0.1-0.3,0.1-0.6,0.1-0.9c0-1.3-0.8-2.2-2.1-2.2c-1.5,0-2.6,1.1-3,2.9
			l-0.3,1.3c-0.1,0.3-0.1,0.6-0.1,0.9c0,1.3,0.8,2.2,2.1,2.2C112.3,364.2,113.4,363.1,113.8,361.3z"/>
		<path class="st0" d="M115.9,364.9l1.3-6.5h1l-0.3,1.3h0.1c0.5-1,1.1-1.4,2-1.4c1.1,0,1.7,0.7,1.7,1.8c0,0.2,0,0.5-0.1,0.8
			l-0.6,3.1h0.9l-0.2,0.9h-0.9c-0.5,0-0.8-0.2-0.8-0.7c0-0.1,0-0.1,0-0.3l0.6-3c0-0.3,0.1-0.5,0.1-0.7c0-0.7-0.3-1.1-1-1.1
			c-0.5,0-0.8,0.2-1.2,0.5c-0.4,0.4-0.8,1.1-0.9,1.6l-0.7,3.6H115.9z"/>
		<path class="st0" d="M124.1,364.9c-0.6,0-0.9-0.3-0.9-0.8c0-0.1,0-0.2,0-0.3l1.6-8.2h1l-1.7,8.4h1l-0.2,0.9H124.1z"/>
		<path class="st0" d="M127.4,364.9c-0.6,0-0.9-0.3-0.9-0.8c0-0.1,0-0.2,0-0.3l1.1-5.4h1l-1.1,5.6h0.9l-0.2,0.9H127.4z M127.9,356.5
			c0,0,0-0.1,0.1-0.4c0.1-0.3,0.3-0.5,0.7-0.5c0.4,0,0.5,0.2,0.5,0.4c0,0,0,0.1-0.1,0.4c-0.1,0.3-0.3,0.5-0.7,0.5
			C128,357,127.9,356.8,127.9,356.5z"/>
		<path class="st0" d="M129.6,364.9l1.3-6.5h1l-0.3,1.3h0.1c0.5-1,1.1-1.4,2-1.4c1.1,0,1.7,0.7,1.7,1.8c0,0.2,0,0.5-0.1,0.8
			l-0.6,3.1h0.9l-0.2,0.9h-0.9c-0.5,0-0.8-0.2-0.8-0.7c0-0.1,0-0.1,0-0.3l0.6-3c0.1-0.3,0.1-0.5,0.1-0.7c0-0.7-0.3-1.1-1-1.1
			c-0.5,0-0.8,0.2-1.2,0.5c-0.4,0.4-0.8,1.1-0.9,1.6l-0.7,3.6H129.6z"/>
		<path class="st0" d="M136.8,362.4c0-2.1,1.4-4.1,3.4-4.1c1.1,0,2.1,0.6,2.1,1.7c0,1.4-1.5,2.1-4.5,2.1c0,0.2,0,0.4,0,0.5
			c0,0.9,0.5,1.5,1.5,1.5c0.8,0,1.5-0.4,2-1l0.6,0.6c-0.8,1-1.7,1.3-2.7,1.3C137.7,365.1,136.8,364.1,136.8,362.4z M138,361.1
			l-0.1,0.4c2.8-0.1,3.3-0.5,3.3-1.4c0-0.7-0.6-0.9-1.2-0.9C139.1,359.2,138.3,359.9,138,361.1z"/>
	</g>
	<g>
		<g>
			<g transform="translate(-18.7 -48.8)">
				<g>
					<path class="st0" d="M157.5,339.8h-1.2v-0.2c0-4.6-2.5-8.9-6.6-11.2l0.6-1c4.4,2.5,7.2,7.2,7.2,12.2
						C157.5,339.7,157.5,339.7,157.5,339.8L157.5,339.8z"/>
				</g>
				<g>
					<path class="st0" d="M143.5,353.6c-2.5,0-5-0.7-7.2-2l0.6-1c4,2.4,9,2.4,13.1,0l0.6,1C148.5,352.9,146,353.7,143.5,353.6z"/>
				</g>
				<g>
					<path class="st0" d="M129.5,339.8L129.5,339.8c0-0.1,0-0.2,0-0.2c0-5.1,2.7-9.7,7.2-12.2l0.6,1c-4.1,2.3-6.6,6.6-6.6,11.2v0.2
						L129.5,339.8L129.5,339.8z"/>
				</g>
				<g>
					<path class="st1" d="M143.4,327.4c-1.4,0-2.4-1.8-2.4-3.5c0-1.4,0.7-2.1,1.2-2.4c0.4-0.2,0.8-0.3,1.2-0.3
						c0.4,0,0.8,0.1,1.2,0.3c0.6,0.3,1.2,1,1.2,2.4C145.8,325.6,144.8,327.4,143.4,327.4z M143.4,322.4c-0.2,0-0.4,0-0.6,0.2
						c-0.4,0.3-0.7,0.8-0.6,1.4c0,1.2,0.7,2.3,1.2,2.3s1.2-1,1.2-2.3c0-0.5-0.2-1.1-0.6-1.4h0C143.8,322.5,143.6,322.4,143.4,322.4z
						"/>
				</g>
				<g>
					<path class="st1" d="M147.2,330h-7.4c-0.4,0-0.7-0.2-0.8-0.5c-0.1-0.2-0.1-0.5,0-0.7l0.2-0.6c0.4-1.3,1.4-2.2,2.7-2.5l0.3,0
						l0.2,0.2c0.3,0.3,0.7,0.5,1.1,0.5c0.4,0,0.8-0.2,1.1-0.6l0.2-0.2l0.3,0c1.3,0.2,2.3,1.2,2.7,2.4v0l0.2,0.6
						c0.1,0.2,0,0.5-0.1,0.8l0,0.1l-0.1,0.1C147.7,329.9,147.4,330,147.2,330z M140.2,329.1 M140.2,328.8h6.6l-0.1-0.3
						c-0.2-0.7-0.7-1.3-1.4-1.5c-1,0.9-2.5,0.9-3.5,0c-0.7,0.2-1.2,0.8-1.4,1.5L140.2,328.8z"/>
				</g>
				<g>
					<path class="st1" d="M155.8,347.8c-1.4,0-2.4-1.8-2.4-3.5c0-1.4,0.7-2.1,1.2-2.4c0.4-0.2,0.8-0.3,1.2-0.3
						c0.4,0,0.8,0.1,1.2,0.3c0.6,0.3,1.2,1,1.2,2.4C158.3,346,157.2,347.8,155.8,347.8z M155.8,342.8c-0.2,0-0.4,0-0.6,0.2
						c-0.4,0.3-0.7,0.8-0.6,1.4c0,1.2,0.7,2.3,1.2,2.3s1.2-1,1.2-2.3c0-0.5-0.2-1.1-0.6-1.4h0C156.2,342.8,156,342.8,155.8,342.8z"
						/>
				</g>
				<g>
					<path class="st1" d="M159.6,350.4h-7.4c-0.4,0-0.7-0.2-0.8-0.5c-0.1-0.2-0.1-0.5,0-0.7l0.2-0.6c0.4-1.3,1.4-2.2,2.7-2.5l0.3,0
						l0.2,0.2c0.3,0.3,0.7,0.5,1.1,0.5c0.4,0,0.8-0.2,1.1-0.6l0.2-0.2l0.3,0c1.3,0.2,2.3,1.2,2.7,2.4v0l0.2,0.6
						c0.1,0.2,0,0.5-0.1,0.8l0,0.1l-0.1,0.1C160.1,350.3,159.8,350.4,159.6,350.4z M152.5,349.5 M152.6,349.2h6.6l-0.1-0.4
						c-0.2-0.7-0.7-1.3-1.4-1.5c-1,0.9-2.5,0.9-3.5,0c-0.7,0.2-1.2,0.8-1.4,1.5L152.6,349.2z"/>
				</g>
				<g>
					<path class="st1" d="M131,347.8c-1.4,0-2.4-1.8-2.4-3.5c0-1.4,0.7-2.1,1.2-2.4c0.4-0.2,0.8-0.3,1.2-0.3c0.4,0,0.8,0.1,1.2,0.3
						c0.6,0.3,1.2,1,1.2,2.4C133.4,346,132.4,347.8,131,347.8z M131,342.8c-0.2,0-0.4,0-0.6,0.2c-0.4,0.3-0.7,0.8-0.6,1.4
						c0,1.2,0.7,2.3,1.2,2.3s1.2-1,1.2-2.3c0-0.5-0.2-1.1-0.6-1.4h0C131.4,342.8,131.2,342.8,131,342.8z"/>
				</g>
				<g>
					<path class="st1" d="M134.8,350.4h-7.4c-0.4,0-0.7-0.2-0.8-0.5c-0.1-0.2-0.1-0.5,0-0.7l0.2-0.6c0.4-1.3,1.4-2.2,2.7-2.5l0.3,0
						l0.2,0.2c0.3,0.3,0.7,0.5,1.1,0.5c0.4,0,0.8-0.2,1.1-0.6l0.2-0.2l0.3,0c1.3,0.2,2.3,1.2,2.7,2.4v0l0.2,0.6
						c0.1,0.2,0,0.5-0.1,0.8l0,0.1l-0.1,0.1C135.3,350.3,135.1,350.4,134.8,350.4z M127.8,349.5 M127.8,349.2h6.6l-0.1-0.4
						c-0.2-0.7-0.7-1.3-1.4-1.5c-1,0.9-2.5,0.9-3.5,0c-0.7,0.2-1.2,0.8-1.4,1.5L127.8,349.2z"/>
				</g>
			</g>
		</g>
	</g>
	<g>
		<path class="st0" d="M124.8,317.9c-15.3,0-27.8-12.5-27.8-27.8c0-15.3,12.5-27.8,27.8-27.8c15.3,0,27.8,12.5,27.8,27.8
			C152.6,305.4,140.1,317.9,124.8,317.9z M124.8,263.3c-14.8,0-26.8,12-26.8,26.8s12,26.8,26.8,26.8s26.8-12,26.8-26.8
			S139.6,263.3,124.8,263.3z"/>
	</g>
	<g>
		<path class="st0" d="M894.8,415.9H637.3v-224h257.6V415.9z M638.3,414.9h255.6v-222H638.3V414.9z"/>
	</g>
	<g>
		<path class="st0" d="M721,336.4c0-4.7,2.4-7.1,6-7.1s6,2.4,6,7.1s-2.4,7.1-6,7.1S721,341.1,721,336.4z M729.9,337.5v-2
			c0-2.2-1.1-3.4-2.9-3.4s-2.9,1.2-2.9,3.4v2c0,2.2,1.1,3.4,2.9,3.4S729.9,339.6,729.9,337.5z"/>
		<path class="st0" d="M735.4,333h2.9v1.7h0.1c0.3-1.1,1.4-2,2.8-2c2.6,0,4,1.9,4,5.4s-1.4,5.4-4,5.4c-1.3,0-2.5-0.8-2.8-2h-0.1v5.7
			h-2.9V333z M742.1,339v-1.8c0-1.3-0.8-2.1-1.9-2.1s-1.9,0.6-1.9,1.5v3c0,0.9,0.8,1.5,1.9,1.5S742.1,340.3,742.1,339z"/>
		<path class="st0" d="M750.9,343.3c-2,0-3.1-1-3.1-3v-5.1h-1.5V333h0.7c0.8,0,1-0.4,1-1.1v-1.7h2.6v2.8h2v2.3h-2v5.8h1.9v2.3H750.9
			z"/>
		<path class="st0" d="M754.5,330.4V330c0-0.8,0.5-1.4,1.7-1.4c1.2,0,1.7,0.6,1.7,1.4v0.4c0,0.8-0.5,1.4-1.7,1.4
			C755,331.9,754.5,331.3,754.5,330.4z M754.8,333h2.9v10.3h-2.9V333z"/>
		<path class="st0" d="M760.4,343.3V333h2.9v1.8h0.1c0.4-1.1,1.2-2,2.8-2c1.4,0,2.4,0.7,2.9,2.1h0.1c0.4-1.2,1.6-2.1,3.1-2.1
			c2,0,3.1,1.5,3.1,4.1v6.5h-2.9v-6.2c0-1.3-0.5-2-1.4-2c-0.9,0-1.7,0.5-1.7,1.5v6.7h-2.9v-6.2c0-1.3-0.5-2-1.4-2
			c-0.8,0-1.7,0.5-1.7,1.5v6.7H760.4z"/>
		<path class="st0" d="M777.7,330.4V330c0-0.8,0.5-1.4,1.7-1.4c1.2,0,1.7,0.6,1.7,1.4v0.4c0,0.8-0.5,1.4-1.7,1.4
			C778.2,331.9,777.7,331.3,777.7,330.4z M778,333h2.9v10.3H778V333z"/>
		<path class="st0" d="M783,343.3V341l5.1-5.8h-5V333h8.3v2.3l-5.2,5.8h5.3v2.3H783z"/>
		<path class="st0" d="M792.9,338.1c0-3.3,1.7-5.4,4.8-5.4c3.4,0,4.8,2.5,4.8,5.3v0.9h-6.6v0.2c0,1.4,0.7,2.2,2.3,2.2
			c1.2,0,1.9-0.6,2.5-1.2l1.5,1.8c-0.9,1.1-2.4,1.7-4.3,1.7C794.7,343.5,792.9,341.4,792.9,338.1z M795.9,337v0.2h3.6V337
			c0-1.3-0.6-2.1-1.7-2.1S795.9,335.7,795.9,337z"/>
		<path class="st0" d="M806,335.7l-1.1-0.8l1.8-2.3l-2.8-0.8l0.4-1.3l2.7,1l-0.1-2.9h1.4l-0.1,2.9l2.7-1l0.4,1.3l-2.8,0.8l1.8,2.3
			l-1.1,0.8l-1.6-2.4L806,335.7z"/>
	</g>
	<g>
		<path class="st0" d="M718.3,364.9l1.8-8.7h3.1c1.5,0,2.2,0.9,2.2,2.1c0,1.6-1.1,2.9-2.9,2.9h-2.3l-0.8,3.7H718.3z M720.3,360.3
			h2.3c0.8,0,1.4-0.4,1.6-1.3c0.1-0.6,0.2-0.7,0.2-0.9c0-0.6-0.3-1-1.2-1h-2.2L720.3,360.3z"/>
		<path class="st0" d="M725.5,364.9l1.3-6.5h1l-0.3,1.3h0.1c0.4-0.6,0.9-1.3,1.9-1.3h0.4l-0.2,1h-0.5c-1.2,0-1.8,0.8-2,1.6l-0.8,3.8
			H725.5z"/>
		<path class="st0" d="M730.2,362.4c0-2.2,1.4-4.1,3.3-4.1c1.4,0,2.3,0.9,2.3,2.7c0,2.2-1.4,4.1-3.3,4.1
			C731.1,365.1,730.2,364.2,730.2,362.4z M734.6,362.2l0.2-0.9c0-0.2,0.1-0.4,0.1-0.6c0-0.9-0.5-1.5-1.5-1.5c-0.9,0-1.7,0.7-2,2
			l-0.2,0.9c0,0.2-0.1,0.4-0.1,0.6c0,0.9,0.5,1.5,1.5,1.5C733.5,364.2,734.4,363.5,734.6,362.2z"/>
		<path class="st0" d="M737,362.5c0-2.2,1.2-4.1,3.2-4.1c1.1,0,1.9,0.6,2.1,1.5l-0.8,0.4c-0.2-0.7-0.7-1-1.4-1c-1,0-1.7,0.7-1.9,1.8
			l-0.2,1.1c0,0.2-0.1,0.4-0.1,0.6c0,0.9,0.5,1.6,1.5,1.6c0.6,0,1.1-0.3,1.7-1.3l0.8,0.4c-0.5,1.1-1.4,1.8-2.5,1.8
			C737.9,365.1,737,364,737,362.5z"/>
		<path class="st0" d="M743.1,362.4c0-2.1,1.4-4.1,3.4-4.1c1.1,0,2.1,0.6,2.1,1.7c0,1.4-1.5,2.1-4.5,2.1c0,0.2,0,0.4,0,0.5
			c0,0.9,0.5,1.5,1.5,1.5c0.8,0,1.5-0.4,2-1l0.6,0.6c-0.8,1-1.7,1.3-2.7,1.3C744,365.1,743.1,364.1,743.1,362.4z M744.3,361.1
			l-0.1,0.4c2.8-0.1,3.3-0.5,3.3-1.4c0-0.7-0.6-0.9-1.2-0.9C745.3,359.2,744.5,359.9,744.3,361.1z"/>
		<path class="st0" d="M749,363.9l0.7-0.6c0.5,0.6,1,0.9,1.8,0.9c0.9,0,1.5-0.4,1.5-1.2c0-0.4-0.2-0.8-1-0.9l-0.5-0.1
			c-1-0.2-1.7-0.6-1.7-1.7c0-1.1,0.8-2,2.4-2c1,0,1.6,0.3,2.1,1l-0.7,0.6c-0.3-0.4-0.8-0.7-1.5-0.7c-0.9,0-1.4,0.5-1.4,1.1
			c0,0.5,0.2,0.7,0.9,0.9l0.5,0.1c1,0.2,1.7,0.6,1.7,1.7c0,1.3-1,2.1-2.4,2.1C750.5,365.1,749.5,364.7,749,363.9z"/>
		<path class="st0" d="M754.8,363.9l0.7-0.6c0.5,0.6,1,0.9,1.8,0.9c0.9,0,1.5-0.4,1.5-1.2c0-0.4-0.2-0.8-1-0.9l-0.5-0.1
			c-1-0.2-1.7-0.6-1.7-1.7c0-1.1,0.8-2,2.4-2c1,0,1.6,0.3,2.1,1l-0.7,0.6c-0.3-0.4-0.8-0.7-1.5-0.7c-0.9,0-1.4,0.5-1.4,1.1
			c0,0.5,0.2,0.7,0.9,0.9l0.5,0.1c1,0.2,1.7,0.6,1.7,1.7c0,1.3-1,2.1-2.4,2.1C756.3,365.1,755.3,364.7,754.8,363.9z"/>
		<path class="st0" d="M769.3,364.9l-0.3-2.6h-3.4l-1.4,2.6h-1.1l4.7-8.7h1.3l1.2,8.7H769.3z M768.3,357.2L768.3,357.2l-2.3,4.3h2.8
			L768.3,357.2z"/>
		<path class="st0" d="M771.7,364.9l1.3-6.5h1l-0.3,1.3h0.1c0.5-1,1.1-1.4,2-1.4c1.1,0,1.7,0.7,1.7,1.8c0,0.2,0,0.5-0.1,0.8
			l-0.6,3.1h0.9l-0.2,0.9h-0.9c-0.5,0-0.8-0.2-0.8-0.7c0-0.1,0-0.1,0-0.3l0.6-3c0.1-0.3,0.1-0.5,0.1-0.7c0-0.7-0.3-1.1-1-1.1
			c-0.5,0-0.8,0.2-1.2,0.5c-0.4,0.4-0.8,1.1-0.9,1.6l-0.7,3.6H771.7z"/>
		<path class="st0" d="M783.8,364.9c-0.6,0-0.8-0.3-0.8-0.8c0-0.1,0-0.2,0-0.3l0.1-0.3h0c-0.5,1.1-1.1,1.6-2.1,1.6
			c-1.2,0-2-0.9-2-2.5c0-1.9,1-4.3,3.2-4.3c0.8,0,1.5,0.4,1.7,1.2h0l0.2-1.1h1l-1.1,5.6h0.9l-0.2,0.9H783.8z M782.6,363.6
			c0.4-0.4,0.7-0.9,0.8-1.6l0.3-1.3c0.2-0.8-0.3-1.5-1.4-1.5c-1.1,0-1.8,0.7-2,2l-0.2,0.9c0,0.2-0.1,0.4-0.1,0.6
			c0,0.8,0.4,1.5,1.2,1.5C781.8,364.2,782.2,364,782.6,363.6z"/>
		<path class="st0" d="M787.2,364.9c-0.6,0-0.9-0.3-0.9-0.8c0-0.1,0-0.2,0-0.3l1.6-8.2h1l-1.7,8.4h1l-0.2,0.9H787.2z"/>
		<path class="st0" d="M794.4,358.5h1l-4.4,7.9c-0.4,0.8-0.7,1-1.4,1h-1l0.2-0.8h1.2l0.8-1.5l-1-6.7h0.9l0.5,3.2l0.3,2.4h0.1
			l1.2-2.4L794.4,358.5z"/>
		<path class="st0" d="M796.7,364.9c-0.6,0-0.9-0.3-0.9-0.8c0-0.1,0-0.2,0-0.3l0.9-4.5h-1l0.2-0.9h0.5c0.5,0,0.6-0.2,0.7-0.6
			l0.2-1.2h0.9l-0.4,1.8h1.4l-0.2,0.9h-1.4l-1,4.8h1.3l-0.2,0.9H796.7z"/>
		<path class="st0" d="M800.5,364.9c-0.6,0-0.9-0.3-0.9-0.8c0-0.1,0-0.2,0-0.3l1.1-5.4h1l-1.1,5.6h0.9l-0.2,0.9H800.5z M801,356.5
			c0,0,0-0.1,0-0.4c0.1-0.3,0.3-0.5,0.7-0.5c0.4,0,0.5,0.2,0.5,0.4c0,0,0,0.1,0,0.4c-0.1,0.3-0.3,0.5-0.7,0.5
			C801.2,357,801,356.8,801,356.5z"/>
		<path class="st0" d="M802.9,362.5c0-2.2,1.2-4.1,3.2-4.1c1.1,0,1.9,0.6,2.1,1.5l-0.8,0.4c-0.2-0.7-0.7-1-1.4-1
			c-1,0-1.7,0.7-1.9,1.8l-0.2,1.1c0,0.2-0.1,0.4-0.1,0.6c0,0.9,0.5,1.6,1.5,1.6c0.6,0,1.1-0.3,1.7-1.3l0.8,0.4
			c-0.5,1.1-1.4,1.8-2.5,1.8C803.8,365.1,802.9,364,802.9,362.5z"/>
		<path class="st0" d="M808.5,363.9l0.7-0.6c0.5,0.6,1,0.9,1.8,0.9c0.9,0,1.5-0.4,1.5-1.2c0-0.4-0.2-0.8-1-0.9L811,362
			c-1-0.2-1.7-0.6-1.7-1.7c0-1.1,0.8-2,2.4-2c1,0,1.6,0.3,2.1,1l-0.7,0.6c-0.3-0.4-0.8-0.7-1.5-0.7c-0.9,0-1.4,0.5-1.4,1.1
			c0,0.5,0.2,0.7,0.9,0.9l0.5,0.1c1,0.2,1.7,0.6,1.7,1.7c0,1.3-1,2.1-2.4,2.1C810,365.1,809.1,364.7,808.5,363.9z"/>
	</g>
	<g>
		<path class="st0" d="M722.7,226.1v-2.4h1.8v-9h-1.8v-2.4h6.5v2.4h-1.8v9h1.8v2.4H722.7z"/>
		<path class="st0" d="M742,217.1L742,217.1l-1.1,2l-2.7,4.9l-2.6-4.8l-1-2.2h-0.1v9.1h-2.8v-13.7h3.2l3.4,6.4h0l3.3-6.4h3.2v13.7
			H742V217.1z"/>
		<path class="st0" d="M747.8,226.1v-13.7h6.5c2.6,0,4.2,1.8,4.2,4.4c0,2.6-1.6,4.4-4.2,4.4h-3.5v5H747.8z M750.8,218.5h3.1
			c0.9,0,1.4-0.5,1.4-1.4v-0.9c0-0.9-0.6-1.4-1.4-1.4h-3.1V218.5z"/>
		<path class="st0" d="M763.7,226.1h-3v-13.7h6.5c2.5,0,4.2,1.8,4.2,4.4c0,1.8-0.8,3.3-2.5,4l2.7,5.4h-3.3l-2.4-5h-2.1V226.1z
			 M766.8,218.5c0.9,0,1.4-0.5,1.4-1.4v-0.9c0-0.9-0.6-1.4-1.4-1.4h-3.1v3.6H766.8z"/>
		<path class="st0" d="M773.2,219.2c0-4.7,2.4-7.1,6-7.1s6,2.4,6,7.1s-2.4,7.1-6,7.1S773.2,223.9,773.2,219.2z M782.1,220.2v-2
			c0-2.2-1.1-3.4-2.9-3.4s-2.9,1.2-2.9,3.4v2c0,2.2,1.1,3.4,2.9,3.4S782.1,222.4,782.1,220.2z"/>
		<path class="st0" d="M790.4,226.1l-4.4-13.7h3l2,6.6l1.1,4.3h0.1l1-4.3l2-6.6h2.9l-4.5,13.7H790.4z"/>
		<path class="st0" d="M800,226.1v-13.7h9.3v2.7H803v2.8h5.4v2.6H803v3h6.4v2.7H800z"/>
	</g>
	<g>
		<path class="st0" d="M766,317.9c-15.3,0-27.8-12.5-27.8-27.8c0-15.3,12.5-27.8,27.8-27.8c15.3,0,27.8,12.5,27.8,27.8
			C793.8,305.4,781.4,317.9,766,317.9z M766,263.3c-14.8,0-26.8,12-26.8,26.8s12,26.8,26.8,26.8s26.8-12,26.8-26.8
			S780.8,263.3,766,263.3z"/>
	</g>
	<g id="optimize_6_">
		<g id="arrow_5_">
			<polyline class="st1" points="769.3,287.4 774.3,284.2 772.2,281.1 766.8,285.2 766,285.7 766,286.5 767.1,298.8 760.5,298 
				760.3,298 760.1,298.1 750.3,303.5 760.4,299.2 767.9,300.7 769,301 769,299.8 769.3,287.4 			"/>
		</g>
		<g id="arrow-head_5_">
			<polygon class="st0" points="776.7,287.6 781.8,276.8 769.9,277.7 			"/>
		</g>
	</g>
	<g>
		<polygon class="st0" points="916.6,539 39.2,539 39.2,99.6 312.7,99.6 312.7,100.6 40.2,100.6 40.2,538 915.6,538 915.6,100.6 
			643.1,100.6 643.1,99.6 916.6,99.6 		"/>
	</g>
</g>
</svg>
